<svg width="50" height="50" viewBox="0 0 44 42" xmlns="http://www.w3.org/2000/svg">
  <path fill="#fff"
        d="M34.8333 0H9.16667C6.73641 0.00303136 4.40652 1.00968 2.68807 2.79915C0.969617 4.58861 0.00291107 7.01477 0 9.54545V24.8182C0.00291107 27.3489 0.969617 29.775 2.68807 31.5645C4.40652 33.354 6.73641 34.3606 9.16667 34.3636H20.1667V38.1818H12.8333C12.3471 38.1818 11.8808 38.3829 11.537 38.741C11.1932 39.099 11 39.5846 11 40.0909C11 40.5972 11.1932 41.0828 11.537 41.4408C11.8808 41.7989 12.3471 42 12.8333 42H31.1667C31.6529 42 32.1192 41.7989 32.463 41.4408C32.8068 41.0828 33 40.5972 33 40.0909C33 39.5846 32.8068 39.099 32.463 38.741C32.1192 38.3829 31.6529 38.1818 31.1667 38.1818H23.8333V34.3636H34.8333C37.2636 34.3606 39.5935 33.354 41.3119 31.5645C43.0304 29.775 43.9971 27.3489 44 24.8182V9.54545C43.9971 7.01477 43.0304 4.58861 41.3119 2.79915C39.5935 1.00968 37.2636 0.00303136 34.8333 0ZM9.16667 3.81818H34.8333C36.292 3.81818 37.691 4.42159 38.7224 5.49566C39.7539 6.56973 40.3333 8.02649 40.3333 9.54545V22.9091H3.66667V9.54545C3.66667 8.02649 4.24613 6.56973 5.27758 5.49566C6.30903 4.42159 7.70798 3.81818 9.16667 3.81818ZM34.8333 30.5455H9.16667C8.03319 30.5406 6.92885 30.1711 6.00472 29.4876C5.08059 28.8042 4.38182 27.8401 4.004 26.7273H39.996C39.6182 27.8401 38.9194 28.8042 37.9953 29.4876C37.0712 30.1711 35.9668 30.5406 34.8333 30.5455Z"/>
</svg>
