<svg width="50" height="50" viewBox="0 0 44 38" xmlns="http://www.w3.org/2000/svg">
  <path fill="#fff"
        d="M40.3354 25.7218V10.5556C40.3324 7.75707 39.3656 5.07418 37.647 3.09535C35.9284 1.11653 33.5982 0.00335214 31.1677 0H12.8323C10.4018 0.00335214 8.07166 1.11653 6.35301 3.09535C4.63437 5.07418 3.66756 7.75707 3.66465 10.5556V25.7218C2.44226 26.2175 1.4117 27.1953 0.755487 28.4821C0.0992758 29.7689 -0.140236 31.2815 0.079374 32.7521C0.298984 34.2228 0.963543 35.5564 1.95535 36.5169C2.94715 37.4774 4.20219 38.0028 5.49818 38H38.5018C39.7978 38.0028 41.0529 37.4774 42.0447 36.5169C43.0365 35.5564 43.701 34.2228 43.9206 32.7521C44.1402 31.2815 43.9007 29.7689 43.2445 28.4821C42.5883 27.1953 41.5577 26.2175 40.3354 25.7218ZM12.8323 4.22222H31.1677C32.6265 4.22222 34.0256 4.88948 35.0572 6.07721C36.0888 7.26494 36.6683 8.87585 36.6683 10.5556V25.3333H29.0573C28.524 25.3329 27.997 25.4664 27.5132 25.7246C27.0293 25.9827 26.6001 26.3593 26.2556 26.828L25.8028 27.4444H18.1954L17.7444 26.828C17.3999 26.3593 16.9707 25.9827 16.4868 25.7246C16.003 25.4664 15.476 25.3329 14.9427 25.3333H7.33172V10.5556C7.33172 8.87585 7.91124 7.26494 8.94281 6.07721C9.97437 4.88948 11.3735 4.22222 12.8323 4.22222ZM38.5018 33.7778H5.49818C5.0119 33.7778 4.54553 33.5553 4.20168 33.1594C3.85782 32.7635 3.66465 32.2266 3.66465 31.6667C3.66465 31.1068 3.85782 30.5698 4.20168 30.1739C4.54553 29.778 5.0119 29.5555 5.49818 29.5555H14.9446L15.3956 30.172C15.7399 30.6404 16.1688 31.0168 16.6523 31.275C17.1358 31.5331 17.6624 31.6668 18.1954 31.6667H25.8028C26.336 31.6671 26.863 31.5335 27.3469 31.2754C27.8307 31.0173 28.2599 30.6407 28.6044 30.172L29.0573 29.5555H38.5018C38.9881 29.5555 39.4545 29.778 39.7983 30.1739C40.1422 30.5698 40.3354 31.1068 40.3354 31.6667C40.3354 32.2266 40.1422 32.7635 39.7983 33.1594C39.4545 33.5553 38.9881 33.7778 38.5018 33.7778Z"/>
</svg>
