<svg width="50" height="50" viewBox="0 0 32 46" fill="#fff" xmlns="http://www.w3.org/2000/svg">
  <path
      d="M22 0H10C7.34881 0.00304339 4.80712 1.01369 2.93244 2.81025C1.05776 4.60682 0.00317572 7.04261 0 9.58333V36.4167C0.00317572 38.9574 1.05776 41.3932 2.93244 43.1897C4.80712 44.9863 7.34881 45.997 10 46H22C24.6512 45.997 27.1929 44.9863 29.0676 43.1897C30.9422 41.3932 31.9968 38.9574 32 36.4167V9.58333C31.9968 7.04261 30.9422 4.60682 29.0676 2.81025C27.1929 1.01369 24.6512 0.00304339 22 0ZM10 3.83333H22C23.5913 3.83333 25.1174 4.43914 26.2426 5.51747C27.3679 6.5958 28 8.05834 28 9.58333V30.6667H4V9.58333C4 8.05834 4.63214 6.5958 5.75736 5.51747C6.88258 4.43914 8.4087 3.83333 10 3.83333ZM22 42.1667H10C8.4087 42.1667 6.88258 41.5609 5.75736 40.4825C4.63214 39.4042 4 37.9417 4 36.4167V34.5H28V36.4167C28 37.9417 27.3679 39.4042 26.2426 40.4825C25.1174 41.5609 23.5913 42.1667 22 42.1667Z"/>
  <path
      d="M16.0002 40.2489C17.1048 40.2489 18.0002 39.3907 18.0002 38.3322C18.0002 37.2736 17.1048 36.4155 16.0002 36.4155C14.8956 36.4155 14.0002 37.2736 14.0002 38.3322C14.0002 39.3907 14.8956 40.2489 16.0002 40.2489Z"/>
</svg>
