<svg width="50" height="50" viewBox="0 0 36 44" xmlns="http://www.w3.org/2000/svg">
  <path fill="#fff"
        d="M27 0H9C6.61393 0.00291107 4.3264 0.969617 2.6392 2.68807C0.951987 4.40652 0.00285814 6.73641 0 9.16667V34.8333C0.00285814 37.2636 0.951987 39.5935 2.6392 41.3119C4.3264 43.0304 6.61393 43.9971 9 44H27C29.3861 43.9971 31.6736 43.0304 33.3608 41.3119C35.048 39.5935 35.9971 37.2636 36 34.8333V9.16667C35.9971 6.73641 35.048 4.40652 33.3608 2.68807C31.6736 0.969617 29.3861 0.00291107 27 0ZM9 3.66667H27C28.4322 3.66667 29.8057 4.24613 30.8184 5.27758C31.8311 6.30903 32.4 7.70798 32.4 9.16667V31.1667H3.6V9.16667C3.6 7.70798 4.16893 6.30903 5.18162 5.27758C6.19432 4.24613 7.56783 3.66667 9 3.66667ZM27 40.3333H9C7.56783 40.3333 6.19432 39.7539 5.18162 38.7224C4.16893 37.691 3.6 36.292 3.6 34.8333H16.2V36.6667C16.2 37.1529 16.3896 37.6192 16.7272 37.963C17.0648 38.3068 17.5226 38.5 18 38.5C18.4774 38.5 18.9352 38.3068 19.2728 37.963C19.6104 37.6192 19.8 37.1529 19.8 36.6667V34.8333H32.4C32.4 36.292 31.8311 37.691 30.8184 38.7224C29.8057 39.7539 28.4322 40.3333 27 40.3333Z"/>
</svg>
