<svg width="32" height="32" viewBox="0 0 40 40" xmlns="http://www.w3.org/2000/svg">
  <path fill="#fff"
        d="M14.4186 40H25.5814C35.6837 40 40 35.6837 40 25.5814V14.4186C40 4.31628 35.6837 0 25.5814 0H14.4186C4.31628 0 0 4.31628 0 14.4186V25.5814C0 35.6837 4.31628 40 14.4186 40ZM2.7907 14.4186C2.7907 5.84186 5.84186 2.7907 14.4186 2.7907H25.5814C34.1581 2.7907 37.2093 5.84186 37.2093 14.4186V25.5814C37.2093 34.1581 34.1581 37.2093 25.5814 37.2093H14.4186C5.84186 37.2093 2.7907 34.1581 2.7907 25.5814V14.4186ZM18.2858 27.4725C18.2858 28.698 19.063 29.7143 20.0001 29.7143C20.9373 29.7143 21.7144 28.698 21.7144 27.4725V21.7143H27.4727C28.6982 21.7143 29.7144 20.9371 29.7144 20C29.7144 19.0629 28.6982 18.2857 27.4727 18.2857H21.7144V12.5275C21.7144 11.302 20.9373 10.2857 20.0001 10.2857C19.063 10.2857 18.2858 11.302 18.2858 12.5275V18.2857H12.5276C11.3021 18.2857 10.2858 19.0629 10.2858 20C10.2858 20.9371 11.3021 21.7143 12.5276 21.7143H18.2858V27.4725Z"/>
</svg>
