<svg width="32" height="32" xmlns="http://www.w3.org/2000/svg" fill="#fff" viewBox="0 0 40 40">
  <path
      d="M25.6,0H14.4C4.3,0,0,4.3,0,14.4v11.2C0,35.7,4.3,40,14.4,40h11.2C35.7,40,40,35.7,40,25.6V14.4 C40,4.3,35.7,0,25.6,0z M37.2,25.6c0,8.5-3,11.6-11.6,11.6H14.4c-8.5,0-11.6-3-11.6-11.6V14.4c0-8.6,3-11.6,11.6-11.6h11.2 c8.5,0,11.6,3,11.6,11.6C37.2,14.4,37.2,25.6,37.2,25.6z"/>
  <path
      d="M30.1,23.2c-0.4-0.6-1.2-0.6-1.6,0c-0.5,0.7-2.2,3.2-2.2,5.2c0,2.2,1.4,3.9,3,3.9c1.7,0,3-1.7,3-3.9 C32.3,26.4,30.6,23.9,30.1,23.2z M29.3,29.4c-0.4,0-0.8-0.4-0.8-1c0-0.4,0.3-1.2,0.8-2c0.5,0.8,0.8,1.6,0.8,2 C30.1,28.9,29.8,29.4,29.3,29.4z"/>
  <path
      d="M28.1,18.8L28.1,18.8l-1.3-1.3l-5.9-5.8l-0.4-0.4l-1.6-1.5l-2-2c-0.1-0.1-0.3-0.1-0.4-0.1 c-0.2,0-0.3,0-0.5,0.1C15.5,8,15.1,8.5,15.1,9c0,0.3,0,0.5,0.2,0.7l1.1,1.1L9.1,18l0,0c-2.2,2.2-1.5,4.7-0.6,5.8l0,0l0,0l0,0l0,0 c0.1,0.1,0.2,0.2,0.3,0.3c0.1,0.1,0.1,0.1,0.2,0.2c0.1,0.1,0.1,0.1,0.1,0.1l4.9,4.8c1.1,1,2.2,1.6,3.4,1.6c1.2,0,2.3-0.5,3.4-1.6 l7.4-7.2C29.3,20.7,28.3,19.1,28.1,18.8z M18.1,12.7l4,3.9l2.6,2.5l-13.6,0.5L18.1,12.7z M18.9,27.7c-1.1,1.1-2,1.1-3.1,0 l-4.9-4.8c-0.5-0.5-0.8-1-0.8-1.4L25.9,21L18.9,27.7z"/>
</svg>