<svg width="32" height="32" viewBox="0 0 32 32" xmlns="http://www.w3.org/2000/svg" fill="#fff">
  <path
      d="M20.5,0h-9C3.4,0,0,3.4,0,11.5v9C0,28.6,3.4,32,11.5,32h9c8,0,11.5-3.4,11.5-11.5v-9C32,3.4,28.6,0,20.5,0z M29.8,20.5c0,6.8-2.4,9.3-9.3,9.3h-9c-6.8,0-9.3-2.4-9.3-9.3v-9c0-6.9,2.4-9.3,9.3-9.3h9c6.8,0,9.3,2.4,9.3,9.3V20.5z"/>
  <path
      d="M23.5,11.2l-2.6-2.6c-0.3-0.3-0.7-0.6-1.1-0.8s-0.9-0.3-1.4-0.3c-0.5,0-0.9,0.1-1.3,0.4c-0.4,0.2-0.7,0.6-1,1 l-1,1.7l-2.7-0.2c-0.5-0.1-1-0.1-1.5,0.1c-0.5,0.1-0.9,0.3-1.3,0.6c-0.7,0.7-1.1,1.6-1.1,2.6l-0.8,7.2c-0.1,0.5,0,1,0.1,1.5 c0.2,0.5,0.4,0.9,0.8,1.3c0.3,0.3,0.7,0.6,1.1,0.7c0.4,0.2,0.9,0.3,1.3,0.3h0.4l7.2-0.8c0.5,0,1-0.1,1.4-0.3 c0.5-0.2,0.9-0.5,1.2-0.8c0.3-0.4,0.5-0.9,0.6-1.4c0.1-0.5,0.1-1,0-1.5l-0.2-2.7l1.7-1c0.4-0.2,0.7-0.5,0.9-0.9 c0.2-0.4,0.4-0.8,0.4-1.2c0.1-0.5,0-1-0.2-1.5C24.1,12,23.8,11.6,23.5,11.2z M18,10.1c0-0.1,0.1-0.1,0.2-0.2s0.2-0.1,0.2-0.1 c0.3,0,0.6,0.2,0.8,0.4l2.7,2.7c0.1,0.1,0.2,0.2,0.3,0.4c0.1,0.1,0.1,0.3,0.1,0.4c0,0.1,0,0.2-0.1,0.2c0,0.1-0.1,0.1-0.2,0.2 L20.5,15L17,11.6L18,10.1z M19.3,21.1c-0.1,0.1-0.5,0.2-1.1,0.3l-6.7,0.7l1.7-1.6c0.2-0.2,0.3-0.5,0.3-0.8c0-0.3-0.1-0.6-0.3-0.8 c-0.2-0.2-0.5-0.3-0.8-0.3c-0.1,0-0.3,0-0.4,0.1c-0.1,0.1-0.3,0.1-0.4,0.2l-1.6,1.6l0.7-6.6c0.1-0.9,0.3-1,0.3-1.1 c0.4-0.2,0.8-0.2,1.2-0.1l3,0.2l4.1,4.1l0.2,3C19.5,20.3,19.5,20.8,19.3,21.1L19.3,21.1z"/>
</svg>
