<svg width="32" height="32" xmlns="http://www.w3.org/2000/svg" viewBox="0 0 40 40" fill="#fff">
  <path
      d="M36.8,32H25.6c-0.9,0-1.6,0.7-1.6,1.6c0,0.9,0.7,1.6,1.6,1.6h11.2c0.9,0,1.6-0.7,1.6-1.6C38.4,32.7,37.7,32,36.8,32z M36.8,24.8H25.6c-0.9,0-1.6,0.7-1.6,1.6s0.7,1.6,1.6,1.6h11.2c0.9,0,1.6-0.7,1.6-1.6S37.7,24.8,36.8,24.8z"/>
  <path
      d="M19.2,26.6v7.6c0,1.7-0.3,3.2-1.4,4.4c-1.1,1.1-2.7,1.4-4.4,1.4H5.8c-1.7,0-3.2-0.3-4.4-1.4C0.3,37.4,0,35.9,0,34.2v-7.6c0-1.7,0.3-3.2,1.4-4.4c1.1-1.1,2.7-1.4,4.4-1.4h7.6c1.7,0,3.2,0.3,4.4,1.4C18.9,23.3,19.2,24.9,19.2,26.6z"/>
  <path
      d="M40,5.8v7.6c0,1.7-0.3,3.2-1.4,4.4c-1.1,1.1-2.7,1.4-4.4,1.4h-7.6c-1.7,0-3.2-0.3-4.4-1.4c-1.1-1.1-1.4-2.7-1.4-4.4V5.8c0-1.7,0.3-3.2,1.4-4.4C23.4,0.3,24.9,0,26.6,0h7.6c1.7,0,3.2,0.3,4.4,1.4C39.7,2.6,40,4.1,40,5.8z"/>
  <path
      d="M19.2,5.4V14c0,1.5-0.3,3-1.5,4.1c-1.1,1-2.7,1.3-4.3,1.3H5.8c-1.6,0-3.2-0.3-4.3-1.3C0.3,17.1,0,15.6,0,14V5.3c0-1.5,0.3-3,1.5-4C2.6,0.3,4.2,0,5.8,0h7.6c1.6,0,3.2,0.3,4.3,1.3C18.9,2.3,19.2,3.8,19.2,5.4z"/>
</svg>