<svg width="32" height="32" viewBox="0 0 40 40" xmlns="http://www.w3.org/2000/svg">
  <path fill="#282828"
        d="M31.9 30.9C31.9 32.1 30.9 33.1 29.7 33.1C28.5 33.1 27.5 32.1 27.5 30.9C27.5 29.7 28.5 28.7 29.7 28.7C30.9 28.7 31.9 29.7 31.9 30.9Z"/>
  <path fill="#fff"
        d="M37.7 15.8V9.7C37.7 2.3 35.5 0 28.6 0H9.1C2.1 0 0 2.3 0 10V22C0 29.6 2.1 32 9.1 32H16V36.6H10.6C9.8 36.6 9.2 37.4 9.2 38.3C9.2 39.2 9.9 40 10.6 40H17C17.1 40 17.2 40 17.3 40C17.5 39.9 17.7 39.8 17.9 39.6C18.2 39.3 18.4 38.7 18.4 38.2V32H19.6V32.9C19.6 38.2 21.4 40 26.6 40H33C38.2 40 40 38.2 40 32.9V21.9C40 18.8 39.4 16.8 37.7 15.8ZM19.5 28.9H9.1C4 28.9 2.9 27.9 2.8 22.8H19.5V28.9ZM29.7 33.1C28.5 33.1 27.5 32.1 27.5 30.9C27.5 29.7 28.5 28.7 29.7 28.7C30.9 28.7 31.9 29.7 31.9 30.9C31.9 32.1 30.9 33.1 29.7 33.1ZM35 15C34.4 14.9 33.8 14.9 33.1 14.9H26.4C22.1 14.9 20.2 16.1 19.6 19.4H2.8V10C2.8 4.1 3.8 3.1 9.2 3.1H28.6C33.9 3.1 34.9 4.1 35 9.7V15Z"/>
</svg>
