<svg width="40" height="40" xmlns="http://www.w3.org/2000/svg" viewBox="0 0 40 40">
  <path fill="#fff"
        d="M40,14.4v11.2C40,35.7,35.7,40,25.6,40H14.4C4.3,40,0,35.7,0,25.6V14.4C0,4.3,4.3,0,14.4,0h11.2C35.7,0,40,4.3,40,14.4z"/>
  <path fill="#282828"
        d="M32.3,28.4c0,2.2-1.3,3.9-3,3.9c-1.6,0-3-1.7-3-3.9c0-2,1.7-4.5,2.2-5.2c0.4-0.6,1.2-0.6,1.6,0C30.6,23.9,32.3,26.4,32.3,28.4z"/>
  <path fill="#282828"
        d="M28.1,18.8l-1.3-1.3l-5.9-5.8l-0.4-0.4l-1.6-1.5l-2-2c-0.1-0.1-0.3-0.1-0.4-0.1c-0.2,0-0.3,0-0.5,0.1C15.5,8,15.1,8.5,15.1,9c0,0.3,0,0.5,0.2,0.7l1.1,1.1L9.1,18c-1.1,1.1-1.5,2.2-1.5,3.3c0,1.1,0.4,2,0.9,2.5c0.1,0.1,0.2,0.2,0.3,0.3c0.1,0.1,0.1,0.1,0.2,0.2c0.1,0.1,0.1,0.1,0.1,0.1l4.9,4.8c1.1,1,2.2,1.6,3.4,1.6s2.3-0.5,3.4-1.6l7.4-7.2C29.3,20.7,28.3,19.1,28.1,18.8z M11.1,19.6l7-6.9l4,3.9l2.6,2.5L11.1,19.6z"/>
</svg>