<svg width="40" height="40" xmlns="http://www.w3.org/2000/svg" viewBox="0 0 40 40">
  <path fill="#fff"
        d="M25.6,0H14.4C4.3,0,0,4.3,0,14.4v11.2C0,35.7,4.3,40,14.4,40h11.2C35.7,40,40,35.7,40,25.6V14.4 C40,4.3,35.7,0,25.6,0z M14.1,7.4c2.9,0,5.1,2.4,5.1,5.2c0,2.8-2.3,5.1-5.1,5.1c-2.8,0-5.1-2.2-5.1-5.1C9,9.7,11.3,7.4,14.1,7.4z M25.6,37.2H14.4c-5.1,0-8.3-1.1-10-3.8l8.2-5.5c1-0.7,2.4-0.6,3.2,0.2l0.6,0.5c2,1.7,5.1,1.7,7.1,0l7.7-6.6c0.9-0.8,2.5-0.8,3.4,0 l2.5,2.2v1.4h0.1C37.2,34.2,34.1,37.2,25.6,37.2z"/>
  <path fill="#282828"
        d="M37.2,25.6c0,8.6-3.1,11.6-11.6,11.6H14.4c-5.1,0-8.3-1.1-10-3.8l8.2-5.5c1-0.7,2.4-0.6,3.2,0.2l0.6,0.5 c2,1.7,5.1,1.7,7.1,0l7.7-6.6c0.9-0.8,2.5-0.8,3.4,0l2.6,2.2V25.6L37.2,25.6z"/>
  <path fill="#282828"
        d="M19.2,12.6c0,2.8-2.3,5.1-5.1,5.1c-2.8,0-5.1-2.2-5.1-5.1c0-2.9,2.3-5.2,5.1-5.2C17,7.4,19.2,9.8,19.2,12.6z"/>
</svg>