<svg width="32" height="32" viewBox="0 0 32 40" xmlns="http://www.w3.org/2000/svg">
  <path fill="#282828"
        d="M12.2246 2.7865L12.1347 6.8314C12.1347 7.6404 11.5055 8.1798 10.6965 8.1798C9.8875 8.1798 9.2583 7.5505 9.2583 6.7416L9.3482 2.7865C9.528 2.7865 9.7077 2.7865 9.9774 2.7865H12.2246Z"/>
  <path fill="#282828"
        d="M17.2586 2.7865L17.1687 6.8314C17.1687 7.5505 16.6293 8.1798 15.9102 8.1798C15.1911 8.1798 14.7417 7.5505 14.7417 6.7416L14.8316 2.7865H17.2586Z"/>
  <path fill="#282828"
        d="M22.2922 2.7865L22.2024 6.8314C22.2024 7.5505 21.663 8.1798 20.9439 8.1798C20.3147 8.1798 19.7754 7.5505 19.7754 6.7416L19.8653 2.7865H22.2922Z"/>
  <path fill="#fff"
        d="M30.5618 23.4607L29.1236 21.9326C28.6742 21.4831 28.4944 20.9438 28.4944 20.3146V16.2697C28.4944 16 28.6742 15.8202 28.9438 15.8202C30.5618 15.8202 32 14.382 32 12.5843V10.6966C32 3.95506 28.4045 0 22.1124 0H9.9775C3.50562 0 0 3.77528 0 10.6966V29.3034C0 35.8652 3.23595 39.6404 8.9888 40C9.0787 40 9.2584 40 9.3483 40C9.5281 40 9.7079 40 9.8876 40H21.9326C22.1124 40 22.2921 40 22.4719 40C22.4719 40 22.5618 40 22.6517 40C22.7416 40 22.8315 40 22.9213 40C28.6742 39.6404 31.9101 35.7753 31.9101 29.3034V27.1461C32 25.7079 31.4607 24.4494 30.5618 23.4607ZM22.2922 2.7865L22.2024 6.8314C22.2024 7.5505 21.663 8.1798 20.9439 8.1798C20.3147 8.1798 19.7754 7.5505 19.7754 6.7416L19.8653 2.7865H22.2922ZM17.2586 2.7865L17.1687 6.8314C17.1687 7.5505 16.6293 8.1798 15.9102 8.1798C15.1911 8.1798 14.7417 7.5505 14.7417 6.7416L14.8316 2.7865H17.2586ZM9.9774 2.7865H12.2246L12.1347 6.8314C12.1347 7.6404 11.5055 8.1798 10.6965 8.1798C9.8875 8.1798 9.2583 7.5505 9.2583 6.7416L9.3482 2.7865C9.528 2.7865 9.7077 2.7865 9.9774 2.7865ZM10.5169 37.1236V32.8989C10.5169 32.2697 10.6966 31.6405 11.1461 31.191C11.5056 30.7416 12.0449 30.4719 12.6742 30.4719H19.4157C20.5843 30.4719 21.4831 31.5506 21.4831 32.809V37.1236H10.5169Z"/>
</svg>
