<svg width="40" height="30" viewBox="0 0 40 30" fill="#fff" xmlns="http://www.w3.org/2000/svg">
  <path
      d="M12.3077 15C12.3077 10.3976 15.7517 6.66667 20 6.66667C24.2483 6.66667 27.6923 10.3976 27.6923 15C27.6923 19.6024 24.2483 23.3333 20 23.3333C15.7517 23.3333 12.3077 19.6024 12.3077 15Z"/>
  <path
      d="M4.25318 11.9919C3.39345 13.334 3.07692 14.3838 3.07692 15C3.07692 15.6162 3.39345 16.666 4.25318 18.0081C5.08425 19.3054 6.31954 20.7117 7.8824 22.0112C11.0149 24.6157 15.3096 26.6667 20 26.6667C24.6904 26.6667 28.9851 24.6157 32.1176 22.0112C33.6805 20.7117 34.9158 19.3054 35.7468 18.0081C36.6065 16.666 36.9231 15.6162 36.9231 15C36.9231 14.3838 36.6065 13.334 35.7468 11.9919C34.9158 10.6946 33.6805 9.28826 32.1176 7.98882C28.9851 5.38427 24.6904 3.33333 20 3.33333C15.3096 3.33333 11.0149 5.38427 7.8824 7.98882C6.31954 9.28826 5.08425 10.6946 4.25318 11.9919ZM6.00904 5.34452C9.55826 2.39351 14.4943 0 20 0C25.5057 0 30.4417 2.39351 33.991 5.34452C35.769 6.82285 37.2373 8.4721 38.2747 10.0914C39.2833 11.666 40 13.394 40 15C40 16.606 39.2833 18.334 38.2747 19.9086C37.2373 21.5279 35.769 23.1772 33.991 24.6555C30.4417 27.6065 25.5057 30 20 30C14.4943 30 9.55826 27.6065 6.00904 24.6555C4.23102 23.1772 2.76268 21.5279 1.72534 19.9086C0.716658 18.334 0 16.606 0 15C0 13.394 0.716658 11.666 1.72534 10.0914C2.76268 8.4721 4.23102 6.82285 6.00904 5.34452Z"/>
</svg>