<svg width="32" height="32" viewBox="0 0 40 40" xmlns="http://www.w3.org/2000/svg">
  <path fill="#fff"
        d="M40 12V28C40 34.6 34.6 40 28 40H12C5.4 40 0 34.6 0 28V12C0 5.4 5.4 0 12 0H28C34.6 0 40 5.4 40 12Z"/>
  <path fill="#282828"
        d="M29.4 19.7C29.4 20.6 28.4 21.4 27.2 21.4H21.4V27.2C21.4 28.4 20.6 29.4 19.7 29.4C18.8 29.4 18 28.4 18 27.2V21.4H12.2C11 21.4 10 20.6 10 19.7C10 18.8 11 18 12.2 18H18V12.2C18 11 18.8 10 19.7 10C20.6 10 21.4 11 21.4 12.2V18H27.2C28.4 18 29.4 18.8 29.4 19.7Z"/>
</svg>
