<svg width="32" height="32" viewBox="0 0 32 32" xmlns="http://www.w3.org/2000/svg" fill="#fff">
  <path
      d="M20.5,0h-9C3.4,0,0,3.4,0,11.5v9C0,28.6,3.4,32,11.5,32h9C28.6,32,32,28.6,32,20.5v-9C32,3.4,28.6,0,20.5,0z M29.8,20.5c0,6.8-2.4,9.3-9.3,9.3h-9c-6.8,0-9.3-2.4-9.3-9.3v-9c0-6.9,2.4-9.3,9.3-9.3h9c6.8,0,9.3,2.4,9.3,9.3V20.5z"/>
  <path
      d="M24.3,12.5c-0.2-0.5-0.5-0.9-0.8-1.3l-2.6-2.6c-0.3-0.3-0.7-0.6-1.1-0.8c-0.4-0.2-0.9-0.3-1.4-0.3 c-0.5,0-0.9,0.1-1.3,0.4c-0.4,0.2-0.8,0.6-1,1l-1,1.7l-2.7-0.2c-0.5-0.1-1-0.1-1.5,0c-0.5,0.1-0.9,0.3-1.3,0.6 c-0.7,0.7-1.2,1.6-1.2,2.6l-0.8,7.2c-0.1,0.5,0,1,0.1,1.5c0.2,0.5,0.4,0.9,0.8,1.3c0.3,0.3,0.7,0.6,1.1,0.7 c0.4,0.2,0.9,0.3,1.3,0.3h0.4l7.2-0.8c0.5,0,1-0.1,1.4-0.3s0.9-0.5,1.2-0.8c0.3-0.4,0.5-0.9,0.6-1.4c0.1-0.5,0.1-1,0-1.5l-0.2-2.7 l1.7-1c0.4-0.2,0.7-0.5,0.9-0.9c0.2-0.4,0.4-0.8,0.4-1.2C24.5,13.5,24.5,13,24.3,12.5z M13.1,20.5l-1.7,1.6c-0.4,0-0.8-0.2-1.1-0.5 s-0.4-0.7-0.4-1.2l1.6-1.5c0.1-0.1,0.2-0.2,0.4-0.2c0.1,0,0.3-0.1,0.4-0.1c0.3,0,0.6,0.1,0.8,0.3c0.2,0.2,0.3,0.5,0.3,0.8 C13.5,20,13.3,20.2,13.1,20.5z"/>
  <path fill="#282828"
        d="M13.5,19.7c0,0.3-0.1,0.6-0.3,0.8l-1.7,1.6c-0.4,0-0.8-0.2-1.1-0.5s-0.4-0.7-0.4-1.2l1.6-1.5 c0.1-0.1,0.2-0.2,0.4-0.2c0.1,0,0.3-0.1,0.4-0.1c0.3,0,0.6,0.1,0.8,0.3C13.3,19.1,13.5,19.4,13.5,19.7z"/>
</svg>
