<svg width="50" height="50" viewBox="0 0 44 44" xmlns="http://www.w3.org/2000/svg">
  <path fill="#fff"
        d="M22 3.56757C11.8258 3.56757 3.56757 11.8258 3.56757 22C3.56757 32.1742 11.8258 40.4324 22 40.4324C32.1742 40.4324 40.4324 32.1742 40.4324 22C40.4324 11.8258 32.1742 3.56757 22 3.56757ZM0 22C0 9.8555 9.8555 0 22 0C34.1445 0 44 9.8555 44 22C44 34.1445 34.1445 44 22 44C9.8555 44 0 34.1445 0 22ZM22.745 15.4594C19.4673 15.4594 16.6487 18.2925 16.6487 22C16.6487 25.7075 19.4673 28.5406 22.745 28.5406C24.2462 28.5406 25.6363 27.947 26.7365 26.9321C27.4607 26.2641 28.5891 26.3097 29.257 27.0337C29.925 27.7579 29.8795 28.8864 29.1554 29.5544C27.4581 31.12 25.2233 32.1081 22.745 32.1081C17.3152 32.1081 13.0811 27.4909 13.0811 22C13.0811 16.5091 17.3152 11.8919 22.745 11.8919C25.2233 11.8919 27.4581 12.8799 29.1554 14.4456C29.8795 15.1136 29.925 16.2421 29.257 16.9663C28.5891 17.6903 27.4607 17.7359 26.7365 17.0679C25.6363 16.053 24.2462 15.4594 22.745 15.4594Z"/>
</svg>
