<svg width="50" height="50" viewBox="0 0 38 38" fill="#fff" xmlns="http://www.w3.org/2000/svg">
  <path
      d="M30.0834 0H7.91666C5.81781 0.0025141 3.80563 0.837396 2.32151 2.32151C0.837396 3.80563 0.0025141 5.81781 0 7.91666V30.0834C0.0025141 32.1822 0.837396 34.1944 2.32151 35.6785C3.80563 37.1627 5.81781 37.9974 7.91666 38H30.0834C32.1822 37.9974 34.1944 37.1627 35.6785 35.6785C37.1627 34.1944 37.9974 32.1822 38 30.0834V7.91666C37.9974 5.81781 37.1627 3.80563 35.6785 2.32151C34.1944 0.837396 32.1822 0.0025141 30.0834 0ZM7.91666 3.16666H30.0834C31.3431 3.16666 32.5512 3.66711 33.4421 4.55791C34.3329 5.44871 34.8334 6.65688 34.8334 7.91666V30.0834C34.8306 30.7887 34.6682 31.4842 34.3584 32.1179L19.8502 17.6099C19.1151 16.8745 18.2422 16.2912 17.2816 15.8932C16.321 15.4952 15.2914 15.2903 14.2516 15.2903C13.2118 15.2903 12.1821 15.4952 11.2215 15.8932C10.2609 16.2912 9.38808 16.8745 8.65291 17.6099L3.16666 23.0945V7.91666C3.16666 6.65688 3.66711 5.44871 4.55791 4.55791C5.44871 3.66711 6.65688 3.16666 7.91666 3.16666ZM7.91666 34.8334C6.65688 34.8334 5.44871 34.3329 4.55791 33.4421C3.66711 32.5512 3.16666 31.3431 3.16666 30.0834V27.5721L10.8902 19.8486C11.3313 19.4073 11.8551 19.0571 12.4316 18.8182C13.0081 18.5793 13.626 18.4564 14.25 18.4564C14.874 18.4564 15.4919 18.5793 16.0684 18.8182C16.6449 19.0571 17.1687 19.4073 17.6099 19.8486L32.1179 34.3584C31.4842 34.6682 30.7887 34.8306 30.0834 34.8334H7.91666Z"/>
  <path
      d="M25.3336 16.6244C26.4296 16.6244 27.501 16.2994 28.4124 15.6905C29.3237 15.0815 30.034 14.2161 30.4534 13.2034C30.8729 12.1908 30.9826 11.0766 30.7687 10.0016C30.5549 8.92667 30.0271 7.93924 29.2521 7.16422C28.4771 6.38921 27.4896 5.86141 26.4147 5.64758C25.3397 5.43376 24.2254 5.5435 23.2129 5.96294C22.2003 6.38237 21.3348 7.09267 20.7259 8.00399C20.1169 8.9153 19.7918 9.98674 19.7918 11.0828C19.7918 12.5525 20.3757 13.9621 21.415 15.0013C22.4543 16.0406 23.8638 16.6244 25.3336 16.6244ZM25.3336 8.70777C25.8033 8.70777 26.2625 8.84706 26.6531 9.10803C27.0436 9.369 27.348 9.73993 27.5278 10.1739C27.7076 10.6079 27.7545 11.0854 27.6629 11.5461C27.5712 12.0068 27.3451 12.43 27.013 12.7622C26.6808 13.0943 26.2575 13.3204 25.7969 13.4121C25.3362 13.5037 24.8587 13.4568 24.4247 13.277C23.9907 13.0972 23.6198 12.7928 23.3588 12.4023C23.0978 12.0117 22.9586 11.5525 22.9586 11.0828C22.9586 10.4529 23.2088 9.8488 23.6542 9.40339C24.0996 8.958 24.7037 8.70777 25.3336 8.70777Z"/>
</svg>
