<svg width="50" height="50" viewBox="0 0 38 32" fill="#fff" xmlns="http://www.w3.org/2000/svg">
  <path
      d="M13.0381 5.33333H36.1056C36.5513 5.33333 37.1085 5.12 37.4428 4.8C37.6657 4.48 37.8886 4.05333 37.8886 3.52C37.8886 2.98667 37.6657 2.56 37.3314 2.24C36.9971 1.92 36.5513 1.70667 35.9941 1.70667H13.0381C12.5924 1.70667 12.0352 1.92 11.7009 2.24C11.3666 2.66667 11.1437 3.09333 11.1437 3.52C11.1437 3.94667 11.3666 4.48 11.7009 4.8C12.0352 5.12 12.4809 5.33333 13.0381 5.33333Z"/>
  <path
      d="M35.9941 14.1867H13.0381C12.5924 14.1867 12.0352 14.4 11.7009 14.72C11.3666 15.04 11.1437 15.5733 11.1437 16C11.1437 16.4267 11.3666 16.96 11.7009 17.28C12.0352 17.6 12.4809 17.8133 13.0381 17.8133H36.1056C36.5513 17.8133 37.1085 17.6 37.4428 17.28C37.7771 16.96 38 16.5333 38 16C38 15.5733 37.7771 15.04 37.4428 14.72C36.9971 14.4 36.5513 14.1867 35.9941 14.1867Z"/>
  <path
      d="M35.9941 26.6667H13.0381C12.5924 26.6667 12.0352 26.88 11.7009 27.2C11.3666 27.52 11.1437 27.9467 11.1437 28.48C11.1437 28.9067 11.3666 29.44 11.7009 29.76C12.0352 30.08 12.4809 30.2933 13.0381 30.2933H36.1056C36.5513 30.2933 37.1085 30.08 37.4428 29.76C37.7771 29.44 38 29.0133 38 28.48C38 28.0533 37.7771 27.52 37.4428 27.2C36.9971 26.88 36.5513 26.6667 35.9941 26.6667Z"/>
  <path
      d="M3.67742 7.14667C5.68328 7.14667 7.35484 5.54667 7.35484 3.62667C7.46628 1.6 5.79472 0 3.67742 0C1.56012 0 0 1.6 0 3.52C0 5.54667 1.67155 7.14667 3.67742 7.14667Z"/>
  <path
      d="M3.67742 19.52C5.68328 19.52 7.35484 17.92 7.35484 16C7.35484 14.08 5.68328 12.48 3.67742 12.48C1.67155 12.48 0 14.08 0 16C0 17.92 1.67155 19.52 3.67742 19.52Z"/>
  <path
      d="M3.67742 32C5.68328 32 7.35484 30.4 7.35484 28.48C7.35484 26.56 5.68328 24.96 3.67742 24.96C1.67155 24.96 0 26.4533 0 28.48C0 30.4 1.67155 32 3.67742 32Z"/>
  <path
      d="M3.67742 32C5.68328 32 7.35484 30.4 7.35484 28.48C7.35484 26.56 5.68328 24.96 3.67742 24.96C1.67155 24.96 0 26.4533 0 28.48C0 30.4 1.67155 32 3.67742 32Z"/>
</svg>
