<svg width="50" height="50" viewBox="0 0 38 32" fill="#fff" xmlns="http://www.w3.org/2000/svg">
  <path
      d="M17.5471 5.86667H36.2118C36.6588 5.86667 37.2176 5.65333 37.5529 5.33333C37.7765 5.01333 38 4.48 38 4.05333C38 3.52 37.7765 3.09333 37.4412 2.77333C36.9941 2.34667 36.5471 2.13333 35.9882 2.13333H17.5471C17.1 2.13333 16.5412 2.34667 16.2059 2.66667C15.8706 2.98667 15.6471 3.52 15.6471 4.05333C15.6471 4.58667 15.8706 5.01333 16.2059 5.33333C16.5412 5.65333 16.9882 5.86667 17.5471 5.86667Z"/>
  <path
      d="M35.9882 15.1467H1.9C1.45294 15.1467 0.894118 15.36 0.558824 15.68C0.223529 16.1067 0 16.5333 0 17.0667C0 17.6 0.223529 18.0267 0.558824 18.3467C0.894118 18.6667 1.34118 18.88 1.9 18.88H36.1C36.5471 18.88 37.1059 18.6667 37.4412 18.3467C37.7765 18.0267 38 17.4933 38 17.0667C38 16.64 37.7765 16.1067 37.4412 15.7867C36.9941 15.36 36.5471 15.1467 35.9882 15.1467Z"/>
  <path
      d="M35.9882 28.2667H1.9C1.45294 28.2667 0.894118 28.48 0.558824 28.8C0.223529 29.12 0 29.6533 0 30.08C0 30.6133 0.223529 31.04 0.558824 31.36C0.894118 31.7867 1.34118 32 1.9 32H36.1C36.5471 32 37.1059 31.7867 37.4412 31.4667C37.7765 31.1467 38 30.6133 38 30.1867C38 29.6533 37.7765 29.2267 37.4412 28.9067C36.9941 28.48 36.5471 28.2667 35.9882 28.2667Z"/>
  <path
      d="M7.82353 3.73333C7.82353 5.76 6.03529 7.46667 3.91176 7.46667C1.78824 7.46667 0 5.76 0 3.73333C0 1.70667 1.78824 0 3.91176 0C6.03529 0 7.82353 1.70667 7.82353 3.73333Z"/>
</svg>
