<svg width="50" height="50" viewBox="0 0 38 38" fill="#fff" xmlns="http://www.w3.org/2000/svg">
  <path
      d="M34.9428 3.24118C32.8149 1.11765 29.679 0.223529 25.6471 0C25.5351 0 25.4232 0 25.3112 0C25.0872 0 24.7512 0 24.5272 0H13.8875C13.6635 0 13.3276 0 13.1036 0C12.9916 0 12.8796 0 12.7676 0C8.51171 0.223529 5.37582 1.11765 3.24789 3.24118C0.89597 5.58824 0 9.16471 0 13.6353V24.2529C0 28.8353 0.89597 32.3 3.24789 34.6471C5.59981 37.1059 9.18369 38 13.6635 38H24.3032C28.895 38 32.3669 37.1059 34.7188 34.7588C37.0708 32.4118 37.9667 28.8353 37.9667 24.3647V13.7471C38.1907 9.16471 37.2948 5.58824 34.9428 3.24118ZM26.7671 2.68235C29.791 2.90588 31.8069 3.8 33.1509 5.14118C34.1589 6.14706 34.8308 7.48823 35.2788 9.38824H26.7671V2.68235ZM14.1115 2.57059H23.9672V9.27647H14.1115V2.57059ZM5.15183 5.14118C6.49578 3.8 8.51171 3.01765 11.5356 2.68235V9.38824H3.0239C3.35989 7.48823 4.14386 6.14706 5.15183 5.14118ZM35.6148 24.3647C35.6148 28.6118 34.7188 31.2941 33.1509 32.9706C31.5829 34.6471 28.895 35.4294 24.5272 35.4294H13.8875C9.63168 35.4294 6.94377 34.5353 5.26382 32.9706C3.58388 31.4059 2.79991 28.7235 2.79991 24.3647V13.7471C2.79991 13.1882 2.79991 12.6294 2.79991 12.0706H35.6148C35.6148 12.6294 35.6148 13.1882 35.6148 13.7471V24.3647Z"/>
  <path
      d="M24.1914 19.5588L20.1595 17.3235C18.7036 16.5412 17.0236 16.3176 15.6797 16.9882C14.3357 17.7706 13.6638 19.2235 13.6638 20.9V25.1471C13.6638 26.8235 14.3357 28.2765 15.6797 29.0588C17.0236 29.7294 18.7036 29.6176 20.1595 28.7235L24.0794 26.6C25.5354 25.8176 26.6553 24.5882 26.6553 23.0235C26.7673 21.5706 25.6474 20.3412 24.1914 19.5588ZM22.8475 24.4765L18.9276 26.6C17.9196 27.1588 17.2476 27.0471 16.9117 26.9353C16.6877 26.8235 16.2397 26.3765 16.2397 25.2588V21.0118C16.2397 20.0059 16.5757 19.5588 16.9117 19.3353C17.2476 19.2235 17.9196 19.1118 18.9276 19.6706L22.8475 21.7941C23.8554 22.3529 24.0794 22.9118 24.0794 23.1353C24.0794 23.3588 23.9674 23.9176 22.8475 24.4765Z"/>
</svg>
