<svg width="40" height="40" viewBox="0 0 40 40" fill="none" xmlns="http://www.w3.org/2000/svg">
<path d="M25.5688 40H14.4115C4.31416 40 0 35.6837 0 25.5814V14.4186C0 4.31628 4.31416 0 14.4115 0H25.5688C35.6662 0 39.9803 4.31628 39.9803 14.4186V25.5814C39.9803 35.6837 35.6662 40 25.5688 40ZM14.4115 2.7907C5.83899 2.7907 2.78933 5.84186 2.78933 14.4186V25.5814C2.78933 34.1581 5.83899 37.2093 14.4115 37.2093H25.5688C34.1414 37.2093 37.191 34.1581 37.191 25.5814V14.4186C37.191 5.84186 34.1414 2.7907 25.5688 2.7907H14.4115Z" fill="white"/>
<path d="M14.4115 17.6744C11.585 17.6744 9.29775 15.386 9.29775 12.5581C9.29775 9.73023 11.585 7.44186 14.4115 7.44186C17.238 7.44186 19.5253 9.73023 19.5253 12.5581C19.5253 15.386 17.238 17.6744 14.4115 17.6744ZM14.4115 10.2326C13.1284 10.2326 12.0871 11.2744 12.0871 12.5581C12.0871 13.8419 13.1284 14.8837 14.4115 14.8837C15.6946 14.8837 16.736 13.8419 16.736 12.5581C16.736 11.2744 15.6946 10.2326 14.4115 10.2326Z" fill="white"/>
<path d="M2.64195 34.3257C2.19566 34.3257 1.74937 34.1024 1.48903 33.7117C1.06134 33.0792 1.2287 32.2048 1.87954 31.7769L11.0471 25.6187C13.0554 24.2606 15.8262 24.428 17.6485 25.9722L18.2622 26.5117C19.192 27.3117 20.7726 27.3117 21.6838 26.5117L29.4195 19.8699C31.3906 18.1769 34.4961 18.1769 36.4858 19.8699L39.5168 22.4745C40.0933 22.9769 40.1677 23.8513 39.6656 24.4466C39.1635 25.0234 38.2895 25.0978 37.6945 24.5955L34.6634 21.9908C33.7336 21.1908 32.153 21.1908 31.2233 21.9908L23.4875 28.6327C21.5164 30.3257 18.4109 30.3257 16.4212 28.6327L15.8076 28.0931C14.9522 27.3676 13.5389 27.2931 12.5906 27.9443L3.42297 34.1024C3.18122 34.2513 2.90229 34.3257 2.64195 34.3257Z" fill="white"/>
</svg>
