<svg width="46" height="56" viewBox="0 0 46 56" fill="none" xmlns="http://www.w3.org/2000/svg">
<g filter="url(#filter0_d_121_289)">
<path d="M15.5926 8.89364C10.5548 9.12428 8.10349 11.9993 8.10349 17.6641V38.3359C8.10349 43.42 10.078 46.2569 14.1246 46.9519L14.1111 42.3939C14.1111 40.8367 14.6328 39.3847 15.6019 38.2904C16.5709 37.1961 17.8567 36.5859 19.2357 36.5859H26.7083C29.5222 36.5859 31.8143 39.1742 31.8329 42.3308L31.874 46.9402C35.86 46.2169 37.8772 43.3314 37.8772 38.3359V35.9173C37.8772 35.2351 37.6275 34.5736 37.1665 34.0982L35.5721 32.3824C34.5733 31.3075 34.0162 29.8811 34.0162 28.3721V23.8656C34.0162 21.8811 35.5337 20.2481 37.3778 20.2481C37.6467 20.2481 37.858 20.0207 37.858 19.7313V17.6641C37.858 11.9433 35.2126 8.98974 29.9943 8.88163L29.9269 13.3363C29.9088 14.1853 29.3112 14.8687 28.5687 14.8687H28.5506C27.8081 14.848 27.2105 14.1439 27.2105 13.2949L27.2773 8.87855H24.3804L24.3129 13.3363C24.2948 14.1853 23.6972 14.8687 22.9547 14.8687H22.9366C22.1941 14.848 21.5964 14.1439 21.5964 13.2949L21.6633 8.87855H18.7624L18.6838 13.3398C18.6627 14.1869 17.9655 14.8687 17.0994 14.8687H17.0783C16.191 14.848 15.4939 14.1455 15.515 13.2778L15.5926 8.89364Z" fill="white"/>
<path fill-rule="evenodd" clip-rule="evenodd" d="M15.6207 7.3067L15.5926 8.89364C15.8125 8.88357 16.0374 8.87855 16.2672 8.87855H18.7624L18.7894 7.34802C18.7894 6.50091 18.0923 5.79843 17.2262 5.77777H17.205C16.3389 5.77777 15.6418 6.45959 15.6207 7.3067Z" fill="white"/>
<path fill-rule="evenodd" clip-rule="evenodd" d="M21.687 7.31018L21.6633 8.87855H24.3804L24.4035 7.3516C24.4035 6.50256 23.8058 5.79848 23.0633 5.77777H23.0452C22.3027 5.77777 21.7051 6.46114 21.687 7.31018Z" fill="white"/>
<path fill-rule="evenodd" clip-rule="evenodd" d="M27.301 7.31018L27.2773 8.87855H29.6942C29.7952 8.87855 29.8952 8.87957 29.9943 8.88163L30.0175 7.3516C30.0175 6.50256 29.4199 5.79848 28.6774 5.77777H28.6593C27.9168 5.77777 27.3191 6.46114 27.301 7.31018Z" fill="white"/>
<path d="M17.0783 14.8687H17.0994C17.9655 14.8687 18.6627 14.1869 18.6838 13.3398L18.7624 8.87855H16.2672C16.0374 8.87855 15.8125 8.88357 15.5926 8.89364L15.515 13.2778C15.4939 14.1455 16.191 14.848 17.0783 14.8687Z" fill="#282828"/>
<path d="M22.9366 14.8687H22.9547C23.6972 14.8687 24.2948 14.1853 24.3129 13.3363L24.3804 8.87855H21.6633L21.5964 13.2949C21.5964 14.1439 22.1941 14.848 22.9366 14.8687Z" fill="#282828"/>
<path d="M28.5506 14.8687H28.5687C29.3112 14.8687 29.9088 14.1853 29.9269 13.3363L29.9943 8.88163C29.8952 8.87957 29.7952 8.87855 29.6942 8.87855H27.2773L27.2105 13.2949C27.2105 14.1439 27.8081 14.848 28.5506 14.8687Z" fill="#282828"/>
<path fill-rule="evenodd" clip-rule="evenodd" d="M16.2672 50.2222H29.7134C29.9145 50.2222 30.1131 50.2186 30.3092 50.2115C30.3628 50.2186 30.4174 50.2222 30.4726 50.2222C30.5723 50.2222 30.6696 50.2106 30.7635 50.1884C37.126 49.7707 40.7595 45.496 40.7777 38.3359V35.8966C40.7777 34.3876 40.2207 32.9612 39.2218 31.8863L37.6275 30.1705C37.1665 29.6951 36.9168 29.0336 36.9168 28.3514V23.8656C36.9168 23.5762 37.128 23.3488 37.397 23.3488C39.241 23.3488 40.7585 21.7158 40.7585 19.7313V17.6641C40.7585 10.1189 36.7247 5.77777 29.7134 5.77777H16.2672C9.14077 5.77777 5.22217 9.99482 5.22217 17.6641V38.3359C5.22217 45.6349 8.77151 49.8069 15.2575 50.1928C15.345 50.2121 15.4352 50.2222 15.5273 50.2222C15.5803 50.2222 15.6324 50.2189 15.6837 50.2126C15.8758 50.219 16.0703 50.2222 16.2672 50.2222ZM16.9204 47.1214L16.9249 48.6439C16.9249 49.4484 16.3904 50.1247 15.6837 50.2126C15.5403 50.2078 15.3982 50.2012 15.2575 50.1928C14.6197 50.052 14.1297 49.4212 14.1297 48.6439L14.1246 46.9519C14.7837 47.0651 15.4978 47.1214 16.2672 47.1214H16.9204ZM16.9204 47.1214H29.0612L29.019 42.3729C29.019 40.9209 27.9569 39.7635 26.6897 39.7635H19.2357C18.6207 39.7635 18.0244 40.037 17.5772 40.5421C17.1486 41.0261 16.9063 41.6995 16.9063 42.3939L16.9204 47.1214ZM14.1246 46.9519L14.1111 42.3939C14.1111 40.8367 14.6328 39.3847 15.6019 38.2904C16.5709 37.1961 17.8567 36.5859 19.2357 36.5859H26.7083C29.5222 36.5859 31.8143 39.1742 31.8329 42.3308L31.874 46.9402C35.86 46.2169 37.8772 43.3314 37.8772 38.3359V35.9173C37.8772 35.2351 37.6275 34.5736 37.1665 34.0982L35.5721 32.3824C34.5733 31.3075 34.0162 29.8811 34.0162 28.3721V23.8656C34.0162 21.8811 35.5337 20.2481 37.3778 20.2481C37.6467 20.2481 37.858 20.0207 37.858 19.7313V17.6641C37.858 11.9433 35.2126 8.98974 29.9943 8.88163C29.8952 8.87957 29.7952 8.87855 29.6942 8.87855H27.2773H24.3804H21.6633H18.7624H16.2672C16.0374 8.87855 15.8125 8.88357 15.5926 8.89364C10.5548 9.12428 8.10349 11.9993 8.10349 17.6641V38.3359C8.10349 43.42 10.078 46.2569 14.1246 46.9519Z" fill="white"/>
<path d="M14.1246 46.9519L14.1297 48.6439C14.1297 49.4212 14.6197 50.052 15.2575 50.1928C15.3982 50.2012 15.5403 50.2078 15.6837 50.2126C16.3904 50.1247 16.9249 49.4484 16.9249 48.6439L16.9204 47.1214H16.2672C15.4978 47.1214 14.7837 47.0651 14.1246 46.9519Z" fill="white"/>
</g>
<defs>
<filter id="filter0_d_121_289" x="0.222168" y="0.777771" width="45.5557" height="54.4445" filterUnits="userSpaceOnUse" color-interpolation-filters="sRGB">
<feFlood flood-opacity="0" result="BackgroundImageFix"/>
<feColorMatrix in="SourceAlpha" type="matrix" values="0 0 0 0 0 0 0 0 0 0 0 0 0 0 0 0 0 0 127 0" result="hardAlpha"/>
<feOffset/>
<feGaussianBlur stdDeviation="2.5"/>
<feComposite in2="hardAlpha" operator="out"/>
<feColorMatrix type="matrix" values="0 0 0 0 1 0 0 0 0 1 0 0 0 0 1 0 0 0 0.5 0"/>
<feBlend mode="normal" in2="BackgroundImageFix" result="effect1_dropShadow_121_289"/>
<feBlend mode="normal" in="SourceGraphic" in2="effect1_dropShadow_121_289" result="shape"/>
</filter>
</defs>
</svg>
