<svg width="50" height="50" viewBox="0 0 50 50" fill="none" xmlns="http://www.w3.org/2000/svg">
<g filter="url(#filter0_d_121_270)">
<path d="M23.3001 43.2045V43.404C23.3001 44.3017 22.8001 45 22.2001 45H22.1001C22.7001 44.8005 23.3001 44.1022 23.3001 43.2045Z" fill="white"/>
<path d="M42.7 20.7606V14.6758C42.7 7.29426 40.5 5 33.6 5H14.1C7.1 5 5 7.29426 5 14.9751V26.9451C5 34.5262 7.1 36.9202 14.1 36.9202H21V41.5087H15.6C14.8 41.5087 14.2 42.3067 14.2 43.2045C14.2 44.1022 14.9 44.9002 15.6 44.9002H21.9C21.9 44.9002 22 44.9002 22.1 44.9002C22.8 44.8005 23.4 44.1022 23.4 43.2045V36.9202H24.6V37.818C24.6 43.1047 26.4 44.9002 31.6 44.9002H38C43.2 44.9002 45 43.1047 45 37.818V26.9451C45 23.7531 44.4 21.7581 42.7 20.7606ZM14.1 33.9277C9 33.9277 7.9 32.9302 7.8 27.8429H24.5V33.9277H14.1ZM24.6 24.3516H7.8V14.9751C7.8 9.08978 8.8 8.09227 14.2 8.09227H33.6C38.9 8.09227 39.9 9.08978 40 14.6758C40 14.7756 40 18.1671 40 19.9626C39.4 19.8628 38.8 19.8628 38.1 19.8628H31.4C27.1 19.8628 25.2 21.0598 24.6 24.3516ZM42.2 37.818C42.2 41.6085 41.7 42.0075 38.1 42.0075H31.4C27.7 42.0075 27.3 41.5087 27.3 37.818V26.9451C27.3 23.1546 27.8 22.7556 31.4 22.7556H38C41.7 22.7556 42.1 23.2544 42.1 26.9451V37.818H42.2Z" fill="white"/>
<path d="M34.7 38.1172C35.915 38.1172 36.9 37.1347 36.9 35.9227C36.9 34.7107 35.915 33.7282 34.7 33.7282C33.485 33.7282 32.5 34.7107 32.5 35.9227C32.5 37.1347 33.485 38.1172 34.7 38.1172Z" fill="#282828"/>
<path fill-rule="evenodd" clip-rule="evenodd" d="M42.2 37.818C42.2 41.6085 41.7 42.0075 38.1 42.0075H31.4C27.7 42.0075 27.3 41.5087 27.3 37.818V26.9451C27.3 23.1546 27.8 22.7556 31.4 22.7556H38C41.7 22.7556 42.1 23.2544 42.1 26.9451V37.818H42.2ZM34.7 38.1172C35.915 38.1172 36.9 37.1347 36.9 35.9227C36.9 34.7107 35.915 33.7282 34.7 33.7282C33.485 33.7282 32.5 34.7107 32.5 35.9227C32.5 37.1347 33.485 38.1172 34.7 38.1172Z" fill="white"/>
</g>
<defs>
<filter id="filter0_d_121_270" x="0" y="0" width="50" height="50" filterUnits="userSpaceOnUse" color-interpolation-filters="sRGB">
<feFlood flood-opacity="0" result="BackgroundImageFix"/>
<feColorMatrix in="SourceAlpha" type="matrix" values="0 0 0 0 0 0 0 0 0 0 0 0 0 0 0 0 0 0 127 0" result="hardAlpha"/>
<feOffset/>
<feGaussianBlur stdDeviation="2.5"/>
<feComposite in2="hardAlpha" operator="out"/>
<feColorMatrix type="matrix" values="0 0 0 0 1 0 0 0 0 1 0 0 0 0 1 0 0 0 0.5 0"/>
<feBlend mode="normal" in2="BackgroundImageFix" result="effect1_dropShadow_121_270"/>
<feBlend mode="normal" in="SourceGraphic" in2="effect1_dropShadow_121_270" result="shape"/>
</filter>
</defs>
</svg>
