<svg width="50" height="50" viewBox="0 0 50 50" fill="none" xmlns="http://www.w3.org/2000/svg">
<g filter="url(#filter0_d_146_283)">
<path d="M23.8084 16.7619C23.5297 16.7619 23.2511 16.6252 23.031 16.3322L22.2637 15.3101L21.6523 14.4958C21.227 13.9292 21.227 12.9915 21.6523 12.4249C22.0777 11.8584 22.7817 11.8584 23.2071 12.4249L24.5858 14.2613C24.7304 14.4539 24.8258 14.6894 24.8721 14.9387C24.9619 15.4226 24.8665 15.9582 24.5858 16.3322C24.3657 16.6252 24.0871 16.7619 23.8084 16.7619Z" fill="#282828"/>
<path d="M15.6452 26.2807C15.7131 26.677 15.9882 27.1216 16.4815 27.604L21.4078 32.4218C22.5393 33.5284 23.3574 33.5284 24.4889 32.4218L31.2793 25.781L15.6452 26.2807Z" fill="#282828"/>
<path d="M15.6285 26.0891C15.6285 25.6294 15.9245 25.1186 16.4815 24.5738L16.6221 24.4363L15.3881 24.4758C14.6904 24.4999 14.1587 24.9223 14.192 25.417C14.2252 25.9117 14.7734 26.2857 15.438 26.2857H15.4878L15.6452 26.2807C15.6341 26.2155 15.6285 26.1516 15.6285 26.0891Z" fill="#282828"/>
<path fill-rule="evenodd" clip-rule="evenodd" d="M35.0383 37C33.3978 37 32.0476 35.2759 32.0476 33.1398C32.0476 31.116 33.7172 28.6239 34.2253 27.9119C34.6318 27.331 35.4157 27.331 35.8222 27.9119C36.3303 28.6239 37.9999 31.1347 37.9999 33.1398C38.0144 35.2759 36.6788 37 35.0383 37ZM34.2253 33.1398C34.2253 32.7462 34.5882 31.9218 35.0383 31.0973C35.4883 31.9218 35.8367 32.7462 35.8512 33.1398C35.8512 33.7206 35.4883 34.1892 35.0383 34.1892C34.5882 34.1892 34.2253 33.7019 34.2253 33.1398Z" fill="#282828"/>
<path fill-rule="evenodd" clip-rule="evenodd" d="M17 5H33C39.6274 5 45 10.3726 45 17V33C45 39.6274 39.6274 45 33 45H17C10.3726 45 5 39.6274 5 33V17C5 10.3726 10.3726 5 17 5ZM22.9396 35.8095C21.7559 35.8095 20.6244 35.2817 19.5452 34.2262L14.6189 29.4086C12.4604 27.2977 12.4604 24.8803 14.6189 22.7864L22.2637 15.3101L21.6523 14.4958C21.227 13.9292 21.227 12.9915 21.6523 12.4249C22.0777 11.8584 22.7817 11.8584 23.2071 12.4249L24.5858 14.2613C24.7304 14.4539 24.8258 14.6894 24.8721 14.9387L33.7149 23.5865C33.9346 23.8015 34.1049 24.0461 34.224 24.3119C34.3425 24.4469 34.4159 24.6067 34.4271 24.7774C34.4317 24.846 34.4254 24.9133 34.4094 24.9782C34.4222 25.0802 34.4286 25.1838 34.4286 25.2888C34.4286 25.9357 34.1675 26.5485 33.7149 26.9912L26.3167 34.2262C25.2722 35.2817 24.1234 35.8095 22.9396 35.8095ZM32.0476 33.1398C32.0476 35.2759 33.3978 37 35.0383 37C36.6788 37 38.0144 35.2759 37.9999 33.1398C37.9999 31.1347 36.3303 28.6239 35.8222 27.9119C35.4157 27.331 34.6318 27.331 34.2253 27.9119C33.7172 28.6239 32.0476 31.116 32.0476 33.1398Z" fill="white"/>
<path fill-rule="evenodd" clip-rule="evenodd" d="M16.6221 24.4363L16.4815 24.5738C15.9245 25.1186 15.6285 25.6294 15.6285 26.0891C15.6285 26.1516 15.6341 26.2155 15.6452 26.2807L15.4878 26.2857H15.438C14.7734 26.2857 14.2252 25.9117 14.192 25.417C14.1587 24.9223 14.6904 24.4999 15.3881 24.4758L16.6221 24.4363ZM16.6221 24.4363L23.7752 17.4409L30.4615 23.994L16.6221 24.4363ZM19.5452 34.2262C20.6244 35.2817 21.7559 35.8095 22.9396 35.8095C24.1234 35.8095 25.2722 35.2817 26.3167 34.2262L33.7149 26.9912C34.1675 26.5485 34.4286 25.9357 34.4286 25.2888C34.4286 25.1838 34.4222 25.0802 34.4094 24.9782C34.4254 24.9133 34.4317 24.846 34.4271 24.7774C34.4159 24.6067 34.3425 24.4469 34.224 24.3119C34.1049 24.0461 33.9346 23.8015 33.7149 23.5865L24.8721 14.9387C24.8258 14.6894 24.7304 14.4539 24.5858 14.2613L23.2071 12.4249C22.7817 11.8584 22.0777 11.8584 21.6523 12.4249C21.227 12.9915 21.227 13.9292 21.6523 14.4958L22.2637 15.3101L14.6189 22.7864C12.4604 24.8803 12.4604 27.2977 14.6189 29.4086L19.5452 34.2262Z" fill="#282828"/>
<path d="M35.0383 31.0973C34.5882 31.9218 34.2253 32.7462 34.2253 33.1398C34.2253 33.7019 34.5882 34.1892 35.0383 34.1892C35.4883 34.1892 35.8512 33.7206 35.8512 33.1398C35.8367 32.7462 35.4883 31.9218 35.0383 31.0973Z" fill="#282828"/>
<path d="M23.7752 17.4409L16.6221 24.4363L30.4615 23.994L23.7752 17.4409Z" fill="#FCFCFC"/>
</g>
<defs>
<filter id="filter0_d_146_283" x="0" y="0" width="50" height="50" filterUnits="userSpaceOnUse" color-interpolation-filters="sRGB">
<feFlood flood-opacity="0" result="BackgroundImageFix"/>
<feColorMatrix in="SourceAlpha" type="matrix" values="0 0 0 0 0 0 0 0 0 0 0 0 0 0 0 0 0 0 127 0" result="hardAlpha"/>
<feOffset/>
<feGaussianBlur stdDeviation="2.5"/>
<feComposite in2="hardAlpha" operator="out"/>
<feColorMatrix type="matrix" values="0 0 0 0 1 0 0 0 0 1 0 0 0 0 1 0 0 0 0.5 0"/>
<feBlend mode="normal" in2="BackgroundImageFix" result="effect1_dropShadow_146_283"/>
<feBlend mode="normal" in="SourceGraphic" in2="effect1_dropShadow_146_283" result="shape"/>
</filter>
</defs>
</svg>
