<svg width="50" height="50" viewBox="0 0 50 50" fill="none" xmlns="http://www.w3.org/2000/svg">
<g filter="url(#filter0_d_146_279)">
<path d="M30.6 5H19.4C9.3 5 5 9.3 5 19.4V30.6C5 33.7 5.4 36.3 6.3 38.3C6.3 38.5 6.4 38.6 6.5 38.7C8.5 43 12.7 45 19.5 45H30.7C40.7 45 45 40.7 45 30.6V19.4C45 9.3 40.7 5 30.6 5ZM19.4 12.4C22.2 12.4 24.5 14.7 24.5 17.5C24.5 20.3 22.2 22.6 19.4 22.6C16.6 22.6 14.3 20.3 14.3 17.5C14.3 14.7 16.6 12.4 19.4 12.4ZM42.2 30.6C42.2 39.2 39.2 42.2 30.6 42.2H19.4C14.3 42.2 11.1 41.1 9.4 38.4L17.5 32.9C18.5 32.2 19.9 32.3 20.7 33.1L21.3 33.6C23.3 35.3 26.4 35.3 28.4 33.6L36.1 27C37 26.2 38.6 26.2 39.5 27L42 29.2V30.6H42.2Z" fill="white"/>
<path d="M42.2 29.2L42.2 30.6C42.2 39.2 39.2 42.2 30.6 42.2H19.4C14.3 42.2 11.1 41.1 9.4 38.4L17.5 32.9C18.5 32.2 19.9 32.3 20.7 33.1L21.3 33.6C23.3 35.3 26.4 35.3 28.4 33.6L36.1 27C37 26.2 38.6 26.2 39.5 27L42.2 29.2Z" fill="#282828"/>
<path d="M16.5 17.5C16.5 18.3603 17.2007 19.133 18.0515 19.5573C17.4091 19.1122 17 18.3691 17 17.5034C17 16.4771 17.575 15.623 18.4324 15.2335C17.4251 15.6401 16.5 16.541 16.5 17.5Z" fill="#282828"/>
<path fill-rule="evenodd" clip-rule="evenodd" d="M14.3 17.5C14.3 14.7 16.6 12.4 19.4 12.4C22.2 12.4 24.5 14.7 24.5 17.5C24.5 20.3 22.2 22.6 19.4 22.6C16.6 22.6 14.3 20.3 14.3 17.5ZM18.0515 19.5573C17.4091 19.1122 17 18.3691 17 17.5034C17 16.4771 17.575 15.623 18.4324 15.2335C17.4251 15.6401 16.5 16.541 16.5 17.5C16.5 18.3603 17.2007 19.133 18.0515 19.5573ZM22 17.5034C22.0214 17.7601 21.9787 18.0211 21.8858 18.273C21.9601 18.032 22 17.7737 22 17.5034ZM19.5 20C20.6424 20 21.5717 19.2905 21.8858 18.273C21.544 19.1987 20.522 20 19.5 20Z" fill="#282828"/>
<path d="M19.5 20C20.6424 20 21.5717 19.2905 21.8858 18.273C21.544 19.1987 20.522 20 19.5 20Z" fill="#282828"/>
</g>
<defs>
<filter id="filter0_d_146_279" x="0" y="0" width="50" height="50" filterUnits="userSpaceOnUse" color-interpolation-filters="sRGB">
<feFlood flood-opacity="0" result="BackgroundImageFix"/>
<feColorMatrix in="SourceAlpha" type="matrix" values="0 0 0 0 0 0 0 0 0 0 0 0 0 0 0 0 0 0 127 0" result="hardAlpha"/>
<feOffset/>
<feGaussianBlur stdDeviation="2.5"/>
<feComposite in2="hardAlpha" operator="out"/>
<feColorMatrix type="matrix" values="0 0 0 0 1 0 0 0 0 1 0 0 0 0 1 0 0 0 0.5 0"/>
<feBlend mode="normal" in2="BackgroundImageFix" result="effect1_dropShadow_146_279"/>
<feBlend mode="normal" in="SourceGraphic" in2="effect1_dropShadow_146_279" result="shape"/>
</filter>
</defs>
</svg>
