<svg width="40" height="40" viewBox="0 0 40 40" xmlns="http://www.w3.org/2000/svg" fill="#fff">
  <path
      d="M37.7 15.7606V9.67581C37.7 2.29426 35.5 0 28.6 0H9.1C2.1 0 0 2.29426 0 9.97506V21.9451C0 29.5262 2.1 31.9202 9.1 31.9202H16V36.5087H10.6C9.8 36.5087 9.2 37.3067 9.2 38.2045C9.2 39.1022 9.9 39.9002 10.6 39.9002H16.9C16.9 39.9002 17 39.9002 17.1 39.9002C17.8 39.8005 18.4 39.1022 18.4 38.2045V31.9202H19.6V32.818C19.6 38.1047 21.4 39.9002 26.6 39.9002H33C38.2 39.9002 40 38.1047 40 32.818V21.9451C40 18.7531 39.4 16.7581 37.7 15.7606ZM9.1 28.9277C4 28.9277 2.9 27.9302 2.8 22.8429H19.5V28.9277H9.1ZM19.6 19.3516H2.8V9.97506C2.8 4.08978 3.8 3.09227 9.2 3.09227H28.6C33.9 3.09227 34.9 4.08978 35 9.67581C35 9.77556 35 13.1671 35 14.9626C34.4 14.8628 33.8 14.8628 33.1 14.8628H26.4C22.1 14.8628 20.2 16.0598 19.6 19.3516ZM37.2 32.818C37.2 36.6085 36.7 37.0075 33.1 37.0075H26.4C22.7 37.0075 22.3 36.5087 22.3 32.818V21.9451C22.3 18.1546 22.8 17.7556 26.4 17.7556H33C36.7 17.7556 37.1 18.2544 37.1 21.9451V32.818H37.2Z"/>
  <path
      d="M29.7 33.1172C30.915 33.1172 31.9 32.1347 31.9 30.9227C31.9 29.7107 30.915 28.7282 29.7 28.7282C28.485 28.7282 27.5 29.7107 27.5 30.9227C27.5 32.1347 28.485 33.1172 29.7 33.1172Z"/>
</svg>
