<svg width="14" height="70" viewBox="0 0 14 70" xmlns="http://www.w3.org/2000/svg">
  <path fill="#1e1e1e" fill-opacity="0.94"
        d="M11.9062 8.50442C13.2202 9.44298 14 10.9583 14 12.5731L14 53.0292C14 54.2957 13.5194 55.5149 12.6553 56.4408L3.61592e-06 70L3.33786e-06 -6.11959e-07L11.9062 8.50442Z"/>
  <path fill="#fff"
        d="M9.54518 26.0722C9.94998 26.2421 10.1154 26.6575 9.91463 27L5.90617 33.8391C5.74061 34.1216 5.63631 34.5413 5.63631 35C5.63631 35.4587 5.74061 35.8784 5.90617 36.1609L9.91463 43C10.1154 43.3425 9.94998 43.7579 9.54518 43.9278C9.14037 44.0976 8.64946 43.9577 8.4487 43.6151L4.44024 36.7761C4.1324 36.2509 4 35.606 4 35C4 34.394 4.1324 33.7491 4.44024 33.2239L8.4487 26.3849C8.64946 26.0423 9.14037 25.9024 9.54518 26.0722Z"/>
</svg>
