<svg width="40" height="40" viewBox="0 0 40 40" fill="none" xmlns="http://www.w3.org/2000/svg">
<path d="M25.5814 40H14.4186C4.31628 40 0 35.6837 0 25.5814V14.4186C0 4.31628 4.31628 -1.90735e-06 14.4186 -1.90735e-06H25.5814C35.6837 -1.90735e-06 40 4.31628 40 14.4186V25.5814C40 35.6837 35.6837 40 25.5814 40ZM14.4186 2.7907C5.84186 2.7907 2.7907 5.84186 2.7907 14.4186V25.5814C2.7907 34.1581 5.84186 37.2093 14.4186 37.2093H25.5814C34.1581 37.2093 37.2093 34.1581 37.2093 25.5814V14.4186C37.2093 5.84186 34.1581 2.7907 25.5814 2.7907H14.4186Z" fill="white"/>
<path d="M17.9396 30.8095C16.7559 30.8095 15.6244 30.2817 14.5452 29.2262L9.61889 24.4086C7.46037 22.2977 7.46037 19.8803 9.61889 17.7864L17.8352 9.75121C18.34 9.25753 19.1756 9.25753 19.6804 9.75121L28.7149 18.5865C29.1849 19.0462 29.4286 19.6419 29.4286 20.2888C29.4286 20.9357 29.1675 21.5485 28.7149 21.9912L21.3167 29.2262C20.2722 30.2817 19.1234 30.8095 17.9396 30.8095ZM18.7752 12.4409L11.4815 19.5738C10.9245 20.1186 10.6285 20.6294 10.6285 21.0891C10.6285 21.5317 10.9071 22.0422 11.4815 22.604L16.4078 27.4218C17.5393 28.5284 18.3574 28.5284 19.4889 27.4218L26.7826 20.2888L18.7752 12.4409Z" fill="white"/>
<path d="M18.8084 11.7619C18.5297 11.7619 18.2511 11.6252 18.031 11.3322L16.6523 9.49575C16.227 8.9292 16.227 7.99146 16.6523 7.42491C17.0777 6.85836 17.7817 6.85836 18.2071 7.42491L19.5858 9.26132C20.0111 9.82787 20.0111 10.7656 19.5858 11.3322C19.3657 11.6252 19.0871 11.7619 18.8084 11.7619Z" fill="white"/>
<path d="M10.438 21.2857C9.77342 21.2857 9.22518 20.9117 9.19195 20.417C9.15872 19.9223 9.69036 19.4999 10.3881 19.4758L28.1312 18.9086C28.8124 18.8604 29.3939 19.2706 29.4271 19.7774C29.4603 20.2721 28.9287 20.6945 28.2309 20.7186L10.4878 21.2857C10.4712 21.2857 10.4546 21.2857 10.438 21.2857Z" fill="white"/>
<path d="M30.0383 32C28.3978 32 27.0476 30.2759 27.0476 28.1398C27.0476 26.116 28.7172 23.6239 29.2253 22.9119C29.6318 22.331 30.4157 22.331 30.8222 22.9119C31.3303 23.6239 32.9999 26.1347 32.9999 28.1398C33.0144 30.2759 31.6788 32 30.0383 32ZM30.0383 26.0973C29.5882 26.9218 29.2253 27.7462 29.2253 28.1398C29.2253 28.7019 29.5882 29.1892 30.0383 29.1892C30.4883 29.1892 30.8512 28.7206 30.8512 28.1398C30.8367 27.7462 30.4883 26.9218 30.0383 26.0973Z" fill="white"/>
</svg>
