<svg xmlns="http://www.w3.org/2000/svg" viewBox="0 0 40 40" fill="#fff">
  <path
      d="M25.6,0H14.4C4.3,0,0,4.3,0,14.4v11.2C0,35.7,4.3,40,14.4,40h11.2C35.7,40,40,35.7,40,25.6V14.4 C40,4.3,35.7,0,25.6,0z M37.2,25.6c0,8.6-3.1,11.6-11.6,11.6H14.4c-5.1,0-8.3-1.1-10-3.8l8.2-5.5c1-0.7,2.4-0.6,3.2,0.2l0.6,0.5 c2,1.7,5.1,1.7,7.1,0l7.7-6.6c0.9-0.8,2.5-0.8,3.4,0l2.6,2.2V25.6L37.2,25.6z M37.2,20.5l-0.7-0.6c-2-1.7-5.4-1.7-7.4,0l-7.6,6.5 c-0.9,0.8-2.1,0.9-3.2,0.4L17.5,26c-1.8-1.6-4.5-1.9-6.6-0.5l-7.6,5.1c-0.4-1.5-0.5-3-0.5-5.1V14.4c0-8.6,3.1-11.6,11.6-11.6h11.2 c8.6,0,11.6,3.1,11.6,11.6C37.2,14.4,37.2,20.5,37.2,20.5z"/>
  <path
      d="M14.1,7.4C11.3,7.4,9,9.7,9,12.6s2.3,5.1,5.1,5.1s5.1-2.3,5.1-5.1S17,7.4,14.1,7.4z M14.1,14.9 c-1.3,0-2.3-1-2.3-2.3s1-2.3,2.3-2.3s2.3,1,2.3,2.3C16.5,13.8,15.4,14.9,14.1,14.9z"/>
</svg>