<svg width="40" height="40" viewBox="0 0 40 40" fill="none" xmlns="http://www.w3.org/2000/svg">
  <path d="M25.6 0H14.4C4.3 0 0 4.3 0 14.4V25.6C0 28.7 0.4 31.3 1.3 33.3C1.3 33.5 1.4 33.6 1.5 33.7C3.5 38 7.7 40 14.5 40H25.7C35.7 40 40 35.7 40 25.6V14.4C40 4.3 35.7 0 25.6 0ZM14.4 7.4C17.2 7.4 19.5 9.7 19.5 12.5C19.5 15.3 17.2 17.6 14.4 17.6C11.6 17.6 9.3 15.3 9.3 12.5C9.3 9.7 11.6 7.4 14.4 7.4ZM37.2 25.6C37.2 34.2 34.2 37.2 25.6 37.2H14.4C9.3 37.2 6.1 36.1 4.4 33.4L12.5 27.9C13.5 27.2 14.9 27.3 15.7 28.1L16.3 28.6C18.3 30.3 21.4 30.3 23.4 28.6L31.1 22C32 21.2 33.6 21.2 34.5 22L37 24.2V25.6H37.2Z" fill="white"/>
  <path d="M37.2 24.2L37.2 25.6C37.2 34.2 34.2 37.2 25.6 37.2H14.4C9.3 37.2 6.1 36.1 4.4 33.4L12.5 27.9C13.5 27.2 14.9 27.3 15.7 28.1L16.3 28.6C18.3 30.3 21.4 30.3 23.4 28.6L31.1 22C32 21.2 33.6 21.2 34.5 22L37.2 24.2Z" fill="#282828"/>
  <path d="M11.5 12.5C11.5 13.3603 12.2007 14.133 13.0515 14.5573C12.4091 14.1122 12 13.3691 12 12.5034C12 11.4771 12.575 10.623 13.4324 10.2335C12.4251 10.6401 11.5 11.541 11.5 12.5Z" fill="#282828"/>
  <path fill-rule="evenodd" clip-rule="evenodd" d="M9.3 12.5C9.3 9.7 11.6 7.4 14.4 7.4C17.2 7.4 19.5 9.7 19.5 12.5C19.5 15.3 17.2 17.6 14.4 17.6C11.6 17.6 9.3 15.3 9.3 12.5ZM13.0515 14.5573C12.4091 14.1122 12 13.3691 12 12.5034C12 11.4771 12.575 10.623 13.4324 10.2335C12.4251 10.6401 11.5 11.541 11.5 12.5C11.5 13.3603 12.2007 14.133 13.0515 14.5573ZM17 12.5034C17.0214 12.7601 16.9787 13.0211 16.8858 13.273C16.9601 13.032 17 12.7737 17 12.5034ZM14.5 15C15.6424 15 16.5717 14.2905 16.8858 13.273C16.544 14.1987 15.522 15 14.5 15Z" fill="#282828"/>
  <path d="M14.5 15C15.6424 15 16.5717 14.2905 16.8858 13.273C16.544 14.1987 15.522 15 14.5 15Z" fill="#282828"/>
</svg>