<svg width="40" height="40" viewBox="0 0 40 40" fill="none" xmlns="http://www.w3.org/2000/svg">
<path d="M40 14.4V25.6C40 35.7 35.7 40 25.7 40H14.5C7.7 40 3.5 38 1.5 33.7C1.4 33.6 1.3 33.3 1.3 33.3C1.3 33.3 0 28.7 0 25.6V14.4C0 4.3 4.3 0 14.4 0H25.6C35.7 0 40 4.3 40 14.4Z" fill="white"/>
<path d="M36.4 24.2V25.6C36.4 34.2 33.4 37.2 24.8 37.2H13.6C8.5 37.2 5.3 36.1 3.6 33.4L11.7 27.9C12.7 27.2 14.1 27.3 14.9 28.1L15.5 28.6C17.5 30.3 20.6 30.3 22.6 28.6L30.3 22C31.2 21.2 32.8 21.2 33.7 22L36.4 24.2Z" fill="#282828"/>
<path d="M18.6 13.7C19.2 11 17.5 8.2 14.8 7.6C12.1 7 9.3 8.7 8.7 11.4C8.1 14.1 9.8 16.9 12.5 17.5C15.2 18.1 17.9 16.4 18.6 13.7Z" fill="#282828"/>
</svg>
