<svg width="40" height="40" viewBox="0 0 40 40" fill="none" xmlns="http://www.w3.org/2000/svg">
<path d="M17.4 35.4V27.1C17.4 23.8 16.1 22.5 12.8 22.5H4.6C1.4 22.5 0 23.8 0 27.1V35.4C0 38.7 1.3 40 4.6 40H12.9C16.1 40 17.4 38.7 17.4 35.4Z" fill="white"/>
<path d="M40 12.8V4.6C40 1.3 38.7 0 35.4 0H27.1C23.9 0 22.5 1.3 22.5 4.6V12.9C22.5 16.2 23.8 17.5 27.1 17.5H35.4C38.7 17.4 40 16.1 40 12.8Z" fill="white"/>
<path d="M17.4 4.6V12.9C17.4 15.9 16.3 17.3 13.5 17.4C13.3 17.4 13.1 17.4 12.8 17.4H4.6C4.4 17.4 4.2 17.4 4 17.4C1.2 17.2 0 15.9 0 12.9V4.6C0 1.6 1.2 0.2 4 0.0999999C4.2 0.0999999 4.4 0.0999999 4.6 0.0999999H12.8C13 0.0999999 13.2 0.0999999 13.4 0.0999999C16.2 0.2 17.4 1.5 17.4 4.6Z" fill="white"/>
<path d="M24 27.5451C24 26.6918 24.6918 26 25.5451 26H37.2937C38.147 26 38.8388 26.6918 38.8388 27.5451C38.8388 28.3984 38.147 29.0902 37.2937 29.0902H25.5451C24.6918 29.0902 24 28.3984 24 27.5451Z" fill="white"/>
<path d="M24 34.4549C24 33.6016 24.6918 32.9098 25.5451 32.9098H37.2937C38.147 32.9098 38.8388 33.6016 38.8388 34.4549C38.8388 35.3082 38.147 36 37.2937 36H25.5451C24.6918 36 24 35.3082 24 34.4549Z" fill="white"/>
</svg>
