<svg width="50" height="50" viewBox="0 0 50 50" fill="none" xmlns="http://www.w3.org/2000/svg">
<g filter="url(#filter0_d_146_355)">
<path d="M23 26.4286H26.4286V23H23V26.4286Z" fill="#282828"/>
<path fill-rule="evenodd" clip-rule="evenodd" d="M15 24.7143C15 25.6514 16.0163 26.4286 17.2418 26.4286H23V32.1868C23 33.4123 23.7771 34.4286 24.7143 34.4286C25.6514 34.4286 26.4286 33.4123 26.4286 32.1868V26.4286H32.1868C33.4123 26.4286 34.4286 25.6514 34.4286 24.7143C34.4286 23.7771 33.4123 23 32.1868 23H26.4286V17.2418C26.4286 16.0163 25.6514 15 24.7143 15C23.7771 15 23 16.0163 23 17.2418V23H17.2418C16.0163 23 15 23.7771 15 24.7143ZM23 23H26.4286V26.4286H23V23Z" fill="#282828"/>
<path fill-rule="evenodd" clip-rule="evenodd" d="M17 5H33C39.6274 5 45 10.3726 45 17V33C45 39.6274 39.6274 45 33 45H17C10.3726 45 5 39.6274 5 33V17C5 10.3726 10.3726 5 17 5ZM17.2418 26.4286C16.0163 26.4286 15 25.6514 15 24.7143C15 23.7771 16.0163 23 17.2418 23H23V17.2418C23 16.0163 23.7771 15 24.7143 15C25.6514 15 26.4286 16.0163 26.4286 17.2418V23H32.1868C33.4123 23 34.4286 23.7771 34.4286 24.7143C34.4286 25.6514 33.4123 26.4286 32.1868 26.4286H26.4286V32.1868C26.4286 33.4123 25.6514 34.4286 24.7143 34.4286C23.7771 34.4286 23 33.4123 23 32.1868V26.4286H17.2418Z" fill="white"/>
</g>
<defs>
<filter id="filter0_d_146_355" x="0" y="0" width="50" height="50" filterUnits="userSpaceOnUse" color-interpolation-filters="sRGB">
<feFlood flood-opacity="0" result="BackgroundImageFix"/>
<feColorMatrix in="SourceAlpha" type="matrix" values="0 0 0 0 0 0 0 0 0 0 0 0 0 0 0 0 0 0 127 0" result="hardAlpha"/>
<feOffset/>
<feGaussianBlur stdDeviation="2.5"/>
<feComposite in2="hardAlpha" operator="out"/>
<feColorMatrix type="matrix" values="0 0 0 0 1 0 0 0 0 1 0 0 0 0 1 0 0 0 0.5 0"/>
<feBlend mode="normal" in2="BackgroundImageFix" result="effect1_dropShadow_146_355"/>
<feBlend mode="normal" in="SourceGraphic" in2="effect1_dropShadow_146_355" result="shape"/>
</filter>
</defs>
</svg>
