<svg width="40" height="40" viewBox="0 0 40 40" fill="none" xmlns="http://www.w3.org/2000/svg">
<path d="M40 12V28C40 34.6 34.6 40 28 40H12C5.4 40 0 34.6 0 28V12C0 5.4 5.4 0 12 0H28C34.6 0 40 5.4 40 12Z" fill="white"/>
<path d="M32.5 28.4C32.5 30.5 31.2 32.3 29.5 32.3C27.9 32.3 26.5 30.6 26.5 28.4C26.5 26.4 28.2 23.9 28.7 23.2C29.1 22.6 29.9 22.6 30.3 23.2C30.8 23.9 32.5 26.4 32.5 28.4Z" fill="#282828"/>
<path d="M28.9 20.2C28.8 19.6 28.5 19.2 28.3 19C28.2 18.9 28.2 18.9 28.2 18.9L26.9 17.6L21 11.8L20.6 11.4L19 9.9L17 7.9C16.9 7.8 16.7 7.8 16.6 7.8C16.4 7.8 16.3 7.8 16.1 7.9C15.6 8.1 15.2 8.6 15.2 9.1C15.2 9.4 15.2 9.6 15.4 9.8L16.5 10.9L9.2 18.1C7 20.2 7 22.6 9.2 24.7L14.1 29.5C15.2 30.5 16.3 31.1 17.5 31.1C18.7 31.1 19.8 30.6 20.9 29.5L28.3 22.3C28.6 22 28.8 21.6 28.9 21.3C29 21 29 20.6 28.9 20.2ZM11.2 19.7L18.3 12.7L22.4 16.7L25 19.2L11.2 19.7Z" fill="#282828"/>
</svg>
