<svg width="50" height="40" viewBox="0 0 50 40" fill="none" xmlns="http://www.w3.org/2000/svg">
<g filter="url(#filter0_d_237_94)">
<path fill-rule="evenodd" clip-rule="evenodd" d="M17.3077 20C17.3077 15.3976 20.7517 11.6667 25 11.6667C29.2483 11.6667 32.6923 15.3976 32.6923 20C32.6923 24.6024 29.2483 28.3333 25 28.3333C20.7517 28.3333 17.3077 24.6024 17.3077 20ZM25 15C22.451 15 20.3846 17.2386 20.3846 20C20.3846 22.7614 22.451 25 25 25C27.549 25 29.6154 22.7614 29.6154 20C29.6154 17.2386 27.549 15 25 15Z" fill="white"/>
<path fill-rule="evenodd" clip-rule="evenodd" d="M9.25318 16.9919C8.39345 18.334 8.07692 19.3838 8.07692 20C8.07692 20.6162 8.39345 21.666 9.25318 23.0081C10.0842 24.3054 11.3195 25.7117 12.8824 27.0112C16.0149 29.6157 20.3096 31.6667 25 31.6667C29.6904 31.6667 33.9851 29.6157 37.1176 27.0112C38.6805 25.7117 39.9157 24.3054 40.7468 23.0081C41.6065 21.666 41.9231 20.6162 41.9231 20C41.9231 19.3838 41.6065 18.334 40.7468 16.9919C39.9157 15.6946 38.6805 14.2883 37.1176 12.9888C33.9851 10.3843 29.6904 8.33333 25 8.33333C20.3096 8.33333 16.0149 10.3843 12.8824 12.9888C11.3195 14.2883 10.0842 15.6946 9.25318 16.9919ZM11.009 10.3445C14.5583 7.39351 19.4943 5 25 5C30.5057 5 35.4417 7.39351 38.991 10.3445C40.769 11.8228 42.2373 13.4721 43.2747 15.0914C44.2833 16.666 45 18.394 45 20C45 21.606 44.2833 23.334 43.2747 24.9086C42.2373 26.5279 40.769 28.1772 38.991 29.6555C35.4417 32.6065 30.5057 35 25 35C19.4943 35 14.5583 32.6065 11.009 29.6555C9.23102 28.1772 7.76268 26.5279 6.72534 24.9086C5.71666 23.334 5 21.606 5 20C5 18.394 5.71666 16.666 6.72534 15.0914C7.76268 13.4721 9.23102 11.8228 11.009 10.3445Z" fill="white"/>
<path d="M20.3846 20C20.3846 17.2386 22.451 15 25 15C27.549 15 29.6154 17.2386 29.6154 20C29.6154 22.7614 27.549 25 25 25C22.451 25 20.3846 22.7614 20.3846 20Z" fill="white"/>
</g>
<defs>
<filter id="filter0_d_237_94" x="0" y="0" width="50" height="40" filterUnits="userSpaceOnUse" color-interpolation-filters="sRGB">
<feFlood flood-opacity="0" result="BackgroundImageFix"/>
<feColorMatrix in="SourceAlpha" type="matrix" values="0 0 0 0 0 0 0 0 0 0 0 0 0 0 0 0 0 0 127 0" result="hardAlpha"/>
<feOffset/>
<feGaussianBlur stdDeviation="2.5"/>
<feComposite in2="hardAlpha" operator="out"/>
<feColorMatrix type="matrix" values="0 0 0 0 1 0 0 0 0 1 0 0 0 0 1 0 0 0 0.5 0"/>
<feBlend mode="normal" in2="BackgroundImageFix" result="effect1_dropShadow_237_94"/>
<feBlend mode="normal" in="SourceGraphic" in2="effect1_dropShadow_237_94" result="shape"/>
</filter>
</defs>
</svg>
