<svg width="32" height="40" viewBox="0 0 32 40" fill="none" xmlns="http://www.w3.org/2000/svg">
<path d="M22.0421 40H9.94057C3.52674 40 0 36.2047 0 29.3023V10.6977C0 3.79535 3.52674 0 9.94057 0H22.0421C28.3522 0 31.9827 3.90698 31.9827 10.6977V12.5581C31.9827 14.3442 30.617 15.814 28.9573 15.814C28.7153 15.814 28.5251 16.0186 28.5251 16.2791V20.3163C28.5251 20.9302 28.7499 21.5256 29.1648 21.9535L30.5997 23.4977C31.4987 24.4651 32 25.7488 32 27.107V29.3023C31.9827 36.093 28.3522 40 22.0421 40ZM9.94057 2.7907C4.99622 2.7907 2.59319 5.37674 2.59319 10.6977V29.3023C2.59319 34.6233 4.99622 37.2093 9.94057 37.2093H22.0421C26.9173 37.2093 29.3895 34.5488 29.3895 29.3023V27.1256C29.3895 26.5116 29.1648 25.9163 28.7499 25.4884L27.315 23.9442C26.416 22.9767 25.9146 21.693 25.9146 20.3349V16.2791C25.9146 14.493 27.2804 13.0233 28.94 13.0233C29.1821 13.0233 29.3722 12.8186 29.3722 12.5581V10.6977C29.3722 5.45116 26.9001 2.7907 22.0249 2.7907H9.94057Z" fill="white"/>
<path d="M22.7254 40C22.0377 40 21.4675 39.375 21.4675 38.5985L21.4172 32.9356C21.4172 31.6288 20.4612 30.5871 19.3208 30.5871H12.6122C12.0587 30.5871 11.522 30.8333 11.1195 31.2879C10.7338 31.7235 10.5157 32.3295 10.5157 32.9545L10.5325 38.5795C10.5325 39.3561 9.97904 40 9.27463 40C8.587 40 8.01677 39.375 8.01677 38.5795L8 32.9545C8 31.553 8.4696 30.2462 9.34172 29.2614C10.2138 28.2765 11.3711 27.7273 12.6122 27.7273H19.3375C21.87 27.7273 23.9329 30.0568 23.9497 32.8977L24 38.5417C24 39.3561 23.4298 40 22.7254 40Z" fill="white"/>
<path d="M10.6895 8.18182H10.6705C9.87198 8.16322 9.24457 7.53099 9.26358 6.75L9.35864 1.37603C9.37765 0.613636 10.0051 0 10.7846 0H10.8036C11.5831 0.018595 12.2105 0.650827 12.2105 1.41322L12.1155 6.80579C12.0965 7.56818 11.469 8.18182 10.6895 8.18182Z" fill="white"/>
<path d="M15.9593 8.18182H15.943C15.2747 8.16318 14.7368 7.52951 14.7368 6.76538L14.8183 1.37917C14.8346 0.615034 15.3725 0 16.0407 0H16.057C16.7253 0.0186374 17.2632 0.652309 17.2632 1.41644L17.1817 6.80265C17.1654 7.56678 16.6275 8.18182 15.9593 8.18182Z" fill="white"/>
<path d="M21.0119 8.18182H20.9956C20.3273 8.16318 19.7895 7.52951 19.7895 6.76538L19.871 1.37917C19.8873 0.615034 20.4251 0 21.0934 0H21.1097C21.7779 0.0186374 22.3158 0.652309 22.3158 1.41644L22.2343 6.80265C22.218 7.56678 21.6801 8.18182 21.0119 8.18182Z" fill="white"/>
</svg>
