<svg width="40" height="40" viewBox="0 0 40 40" fill="none" xmlns="http://www.w3.org/2000/svg">
<path d="M1.51565 1.27566C2.63784 0.277438 4.18308 0 5.80474 0H13.4057C15.0273 0 16.5726 0.277438 17.6947 1.27566C18.865 2.31662 19.2104 3.80417 19.2104 5.33872V13.8903C19.2104 15.4236 18.8655 16.9136 17.6924 17.9531C16.5679 18.9494 15.0214 19.2198 13.4007 19.2102H5.80474C4.18882 19.2102 2.64201 18.9396 1.518 17.9436C0.343879 16.9033 0 15.4121 0 13.8714V5.33872C0 3.80417 0.34543 2.31662 1.51565 1.27566ZM3.6547 3.68035C3.47501 3.84019 3.21839 4.21741 3.21839 5.33872V13.8714C3.21839 15.0055 3.47656 15.379 3.65236 15.5348C3.87826 15.7349 4.42923 15.9918 5.80474 15.9918H13.4158C14.7847 16.0004 15.3338 15.7429 15.558 15.5442C15.7349 15.3875 15.992 15.0128 15.992 13.8903V5.33872C15.992 4.2174 15.7354 3.84019 15.5557 3.68035C15.328 3.47778 14.7754 3.21839 13.4057 3.21839H5.80474C4.43496 3.21839 3.88243 3.47778 3.6547 3.68035ZM22.2369 1.44731C23.3603 0.32396 24.9375 0 26.5943 0H34.1953C35.8521 0 37.4294 0.32396 38.5527 1.44731C39.676 2.57065 40 4.14785 40 5.80475V13.4057C40 15.0625 39.676 16.6397 38.5527 17.7631C37.4294 18.8864 35.8521 19.2104 34.1953 19.2104H26.5943C24.9375 19.2104 23.3603 18.8864 22.2369 17.7631C21.1136 16.6397 20.7896 15.0625 20.7896 13.4057V5.80475C20.7896 4.14785 21.1136 2.57065 22.2369 1.44731ZM24.5127 3.72305C24.2861 3.94962 24.008 4.47019 24.008 5.80475V13.4057C24.008 14.7402 24.2861 15.2608 24.5127 15.4873C24.7392 15.7139 25.2598 15.992 26.5943 15.992H34.1953C35.5298 15.992 36.0504 15.7139 36.277 15.4873C36.5035 15.2608 36.7816 14.7402 36.7816 13.4057V5.80475C36.7816 4.47019 36.5035 3.94962 36.277 3.72305C36.0504 3.49648 35.5298 3.21839 34.1953 3.21839H26.5943C25.2598 3.21839 24.7392 3.49648 24.5127 3.72305ZM1.4473 22.2369C2.57065 21.1136 4.14785 20.7896 5.80474 20.7896H13.4057C15.0625 20.7896 16.6397 21.1136 17.7631 22.2369C18.8864 23.3603 19.2104 24.9375 19.2104 26.5944V34.1953C19.2104 35.8522 18.8864 37.4294 17.7631 38.5527C16.6397 39.676 15.0625 40 13.4057 40H5.80474C4.14785 40 2.57065 39.676 1.4473 38.5527C0.32396 37.4294 0 35.8522 0 34.1953V26.5944C0 24.9375 0.32396 23.3603 1.4473 22.2369ZM3.72305 24.5127C3.49648 24.7392 3.21839 25.2598 3.21839 26.5944V34.1953C3.21839 35.5298 3.49648 36.0504 3.72305 36.277C3.94962 36.5035 4.47019 36.7816 5.80474 36.7816H13.4057C14.7402 36.7816 15.2608 36.5035 15.4873 36.277C15.7139 36.0504 15.992 35.5298 15.992 34.1953V26.5944C15.992 25.2598 15.7139 24.7392 15.4873 24.5127C15.2608 24.2861 14.7402 24.008 13.4057 24.008H5.80474C4.47019 24.008 3.94962 24.2861 3.72305 24.5127ZM23.988 26.3968C23.988 25.5081 24.7085 24.7876 25.5972 24.7876H36.7916C37.6803 24.7876 38.4008 25.5081 38.4008 26.3968C38.4008 27.2855 37.6803 28.006 36.7916 28.006H25.5972C24.7085 28.006 23.988 27.2855 23.988 26.3968ZM23.988 33.5932C23.988 32.7045 24.7085 31.984 25.5972 31.984H36.7916C37.6803 31.984 38.4008 32.7045 38.4008 33.5932C38.4008 34.4819 37.6803 35.2024 36.7916 35.2024H25.5972C24.7085 35.2024 23.988 34.4819 23.988 33.5932Z" fill="white"/>
</svg>
