<svg width="40" height="40" xmlns="http://www.w3.org/2000/svg" viewBox="0 0 40 40">
  <path fill="#fff"
        d="M1.5,1.3C2.6,0.3,4.2,0,5.8,0h7.6c1.6,0,3.2,0.3,4.3,1.3c1.2,1,1.5,2.5,1.5,4.1V14c0,1.5-0.3,3-1.5,4.1 c-1.1,1-2.7,1.3-4.3,1.3H5.8c-1.6,0-3.2-0.3-4.3-1.3C0.3,17.1,0,15.6,0,14V5.3C0,3.8,0.3,2.3,1.5,1.3z M3.7,3.7 C3.5,3.8,3.2,4.2,3.2,5.3v8.5c0,1.1,0.3,1.5,0.4,1.7C3.9,15.7,4.4,16,5.8,16h7.6c1.4,0,1.9-0.2,2.1-0.4c0.2-0.2,0.4-0.5,0.4-1.7V5.3 c0-1.1-0.3-1.5-0.4-1.7c-0.2-0.2-0.8-0.5-2.2-0.5H5.8C4.4,3.2,3.9,3.5,3.7,3.7z M22.2,1.4C23.4,0.3,24.9,0,26.6,0h7.6 c1.7,0,3.2,0.3,4.4,1.4C39.7,2.6,40,4.1,40,5.8v7.6c0,1.7-0.3,3.2-1.4,4.4c-1.1,1.1-2.7,1.4-4.4,1.4h-7.6c-1.7,0-3.2-0.3-4.4-1.4 c-1.1-1.1-1.4-2.7-1.4-4.4V5.8C20.8,4.1,21.1,2.6,22.2,1.4z M24.5,3.7C24.3,3.9,24,4.5,24,5.8v7.6c0,1.3,0.3,1.9,0.5,2.1 c0.2,0.2,0.7,0.5,2.1,0.5h7.6c1.3,0,1.9-0.3,2.1-0.5c0.2-0.2,0.5-0.7,0.5-2.1V5.8c0-1.3-0.3-1.9-0.5-2.1c-0.2-0.2-0.7-0.5-2.1-0.5 h-7.6C25.3,3.2,24.7,3.5,24.5,3.7z M1.4,22.2c1.1-1.1,2.7-1.4,4.4-1.4h7.6c1.7,0,3.2,0.3,4.4,1.4c1.1,1.1,1.4,2.7,1.4,4.4v7.6 c0,1.7-0.3,3.2-1.4,4.4c-1.1,1.1-2.7,1.4-4.4,1.4H5.8c-1.7,0-3.2-0.3-4.4-1.4C0.3,37.4,0,35.9,0,34.2v-7.6C0,24.9,0.3,23.4,1.4,22.2 z M3.7,24.5c-0.2,0.2-0.5,0.7-0.5,2.1v7.6c0,1.3,0.3,1.9,0.5,2.1c0.2,0.2,0.7,0.5,2.1,0.5h7.6c1.3,0,1.9-0.3,2.1-0.5 c0.2-0.2,0.5-0.7,0.5-2.1v-7.6c0-1.3-0.3-1.9-0.5-2.1S14.8,24,13.4,24H5.8C4.5,24,3.9,24.3,3.7,24.5z M24,26.4 c0-0.9,0.7-1.6,1.6-1.6h11.2c0.9,0,1.6,0.7,1.6,1.6S37.7,28,36.8,28H25.6C24.7,28,24,27.3,24,26.4z M24,33.6c0-0.9,0.7-1.6,1.6-1.6 h11.2c0.9,0,1.6,0.7,1.6,1.6s-0.7,1.6-1.6,1.6H25.6C24.7,35.2,24,34.5,24,33.6z"/>
</svg>