<svg width="25" height="25" xmlns="http://www.w3.org/2000/svg" viewBox="0 0 21 25" fill="#292d32">
  <path
      d="M20.3,4.6c-1.7-0.2-3.4-0.4-5.1-0.5l-0.2-1.5C14.8,1.6,14.5,0,12,0H9.2C6.7,0,6.5,1.6,6.3,2.7L6.1,4.1 C5,4.2,4,4.3,2.9,4.4L0.7,4.6C0.3,4.7,0,5.1,0,5.7c0,0.5,0.5,0.9,0.9,0.9l2.2-0.2c5.6-0.7,11.3-0.4,17,0.2h0.1 c0.4,0,0.8-0.4,0.8-0.9C21,5.2,20.7,4.7,20.3,4.6z M7.7,4L7.9,3c0.2-1,0.2-1.2,1.3-1.2H12c1.1,0,1.2,0.2,1.3,1.2l0.2,1.1 C11.6,4,9.6,4,7.7,4z"/>
  <path
      d="M13.9,25H7.1c-3.7,0-3.9-2.2-4-4L2.3,9.3c0-0.5,0.3-0.9,0.8-0.9c0.5,0,0.8,0.3,0.9,0.8l0.7,11.6 c0.1,1.8,0.2,2.4,2.4,2.4h6.9c2.3,0,2.3-0.7,2.4-2.4l0.7-11.6c0-0.5,0.4-0.8,0.9-0.8c0.4,0,0.8,0.4,0.8,0.9L18,21 C17.8,22.8,17.7,25,13.9,25z"/>
  <path
      d="M12.2,18.7H8.8c-0.4,0-0.8-0.4-0.8-0.9s0.4-0.9,0.8-0.9h3.5c0.4,0,0.8,0.4,0.8,0.9S12.7,18.7,12.2,18.7z"/>
  <path
      d="M13.2,14.1H7.8c-0.4,0-0.8-0.4-0.8-0.9c0-0.5,0.4-0.9,0.8-0.9h5.4c0.4,0,0.8,0.4,0.8,0.9 C14,13.6,13.6,14.1,13.2,14.1z"/>
</svg>