<svg width="50" height="50" viewBox="0 0 50 50" fill="none" xmlns="http://www.w3.org/2000/svg">
<path fill-rule="evenodd" clip-rule="evenodd" d="M24.2968 0.240234C24.0718 0.379296 23.8264 0.609289 23.7514 0.751603C23.6632 0.918634 23.6148 2.46055 23.6148 5.1065V9.20279L23.9433 9.59852C24.367 10.1087 25.0198 10.2467 25.6254 9.95404C26.3935 9.58265 26.4381 9.31441 26.4381 5.05122C26.4381 0.818598 26.3957 0.571303 25.6068 0.191711C25.0501 -0.0760062 24.793 -0.0665098 24.2968 0.240234ZM8.65151 6.15266C8.30527 6.50363 8.21519 6.69915 8.21519 7.0993C8.21519 7.72774 8.17489 7.67011 10.9563 11.0263C13.4624 14.0505 13.7673 14.3036 14.5765 14.0329C15.1939 13.8263 15.53 13.3408 15.53 12.6555C15.53 12.1137 15.433 11.9726 13.1523 9.19317C11.8445 7.59961 10.5943 6.16411 10.3742 6.00306C9.77222 5.56285 9.1828 5.6141 8.65151 6.15266ZM39.6911 5.90185C39.4171 6.10257 35.066 11.2861 34.6135 11.951C33.9113 12.9826 34.9465 14.3757 36.1677 14.0423C36.583 13.929 36.9854 13.5024 39.1319 10.9002C40.4979 9.24403 41.6743 7.73126 41.7462 7.53821C41.9105 7.09695 41.7919 6.60263 41.4155 6.15903C41.0439 5.72116 40.125 5.58418 39.6911 5.90185ZM23.8715 13.5354C19.616 13.8669 15.6151 16.7858 13.8982 20.8117C11.9431 25.3954 12.8169 30.5325 16.1582 34.0987C18.5888 36.6928 21.5207 38.0042 24.8981 38.0079C28.3059 38.0117 31.1812 36.8173 33.5744 34.4038C35.844 32.1152 37.0836 29.0752 37.0878 25.7876C37.0915 22.8555 36.2244 20.3447 34.4112 18.0377C31.8928 14.8333 28.0861 13.2072 23.8715 13.5354ZM0.562472 20.3805C-0.227529 21.0292 -0.176068 22.3069 0.658335 22.7596C0.977235 22.9326 7.84688 24.1805 8.48661 24.1817C9.06396 24.1829 9.5606 23.8043 9.75156 23.218C10.0517 22.2961 9.49002 21.5415 8.33839 21.3193C5.78846 20.8273 1.71128 20.1505 1.31243 20.1528C1.05051 20.1544 0.713003 20.2569 0.562472 20.3805ZM44.4428 20.7969C42.4072 21.1694 40.9492 21.4996 40.7475 21.6336C40.3701 21.8841 40.1694 22.3251 40.1694 22.9032C40.1694 23.4729 40.8941 24.1826 41.4757 24.1826C41.7141 24.1826 43.5526 23.8877 45.561 23.5274C48.8829 22.9312 49.2445 22.841 49.566 22.5288C50.2122 21.9014 50.1255 20.8814 49.3813 20.353C48.949 20.046 48.1533 20.1174 44.4428 20.7969ZM6.56653 34.8822C3.11175 36.9111 2.83918 37.1299 2.82981 37.8828C2.81582 39.0129 3.96528 39.6226 5.04543 39.058C5.92231 38.5997 11.2429 35.4534 11.453 35.2691C11.7186 35.036 11.869 34.3317 11.7533 33.8638C11.6148 33.3049 11.0757 32.8984 10.4729 32.8984C10.0252 32.8984 9.43112 33.2001 6.56653 34.8822ZM38.7856 33.1015C38.0427 33.6288 37.9538 34.6589 38.5989 35.2634C38.7922 35.4443 40.369 36.4205 42.1031 37.4326C44.7641 38.9857 45.3384 39.2726 45.7854 39.2726C46.4115 39.2726 46.9212 38.8886 47.0804 38.297C47.2082 37.8223 47.055 37.1779 46.7483 36.8995C46.6237 36.7864 45.0632 35.8399 43.2805 34.7962C39.8482 32.7865 39.4438 32.6341 38.7856 33.1015ZM18.6741 40.4936C18.4622 40.5872 18.2233 40.7459 18.1429 40.8463C17.9152 41.1311 15.4017 48.2332 15.4017 48.5922C15.4017 49.8415 16.9117 50.4672 17.7563 49.5679C18.0861 49.2167 20.6632 42.271 20.6632 41.7332C20.6632 41.2639 20.2721 40.6877 19.8247 40.4982C19.2974 40.275 19.1702 40.2744 18.6741 40.4936ZM30.2094 40.4348C29.7584 40.6296 29.3897 41.2161 29.3897 41.7389C29.3897 42.2291 31.8181 49.1587 32.1185 49.526C32.2058 49.6326 32.4697 49.8014 32.7052 49.9012C33.5489 50.2587 34.5501 49.599 34.5616 48.678C34.5709 47.9474 32.1517 41.2669 31.7078 40.7972C31.3379 40.4056 30.6578 40.2411 30.2094 40.4348Z" fill="white"/>
</svg>
