<svg width="50" height="50" viewBox="0 0 38 38" fill="#fff" xmlns="http://www.w3.org/2000/svg">
  <path
      d="M30.0647 0H7.93529C5.81176 0 3.8 0.782353 2.34706 2.34706C0.782353 3.8 0 5.81176 0 7.93529V30.0647C0 32.1882 0.782353 34.2 2.34706 35.6529C3.8 37.1059 5.81176 38 7.93529 38H30.0647C32.1882 38 34.2 37.2176 35.6529 35.6529C37.1059 34.2 38 32.1882 38 30.0647V7.93529C38 5.81176 37.2176 3.8 35.6529 2.34706C34.2 0.782353 32.1882 0 30.0647 0ZM34.8706 30.0647C34.8706 31.2941 34.4235 32.5235 33.5294 33.4176C32.6353 34.3118 31.4059 34.7588 30.1765 34.7588H7.93529C6.70588 34.7588 5.47647 34.3118 4.58235 33.4176C3.68824 32.5235 3.24118 31.2941 3.24118 30.0647V7.93529C3.24118 6.70588 3.68824 5.47647 4.58235 4.58235C5.47647 3.68824 6.70588 3.24118 7.93529 3.24118H30.0647C31.2941 3.24118 32.5235 3.68824 33.4176 4.58235C34.3118 5.47647 34.7588 6.70588 34.7588 7.93529L34.8706 30.0647Z"/>
  <path
      d="M24.7826 19C24.7826 22.1936 22.1936 24.7826 19 24.7826C15.8064 24.7826 13.2174 22.1936 13.2174 19C13.2174 15.8064 15.8064 13.2174 19 13.2174C22.1936 13.2174 24.7826 15.8064 24.7826 19Z"/>
</svg>
