<svg width="50" height="50" viewBox="0 0 38 38" xmlns="http://www.w3.org/2000/svg">
  <path fill="#fff"
        d="M30.0647 0H7.93529C5.81176 0 3.8 0.782353 2.34706 2.34706C0.782353 3.8 0 5.81176 0 7.93529V30.0647C0 32.1882 0.782353 34.2 2.34706 35.6529C3.8 37.1059 5.81176 38 7.93529 38H30.0647C32.1882 38 34.2 37.2176 35.6529 35.6529C37.1059 34.2 38 32.1882 38 30.0647V7.93529C38 5.81176 37.2176 3.8 35.6529 2.34706C34.2 0.782353 32.1882 0 30.0647 0ZM34.8706 30.0647C34.8706 31.2941 34.4235 32.5235 33.5294 33.4176C32.6353 34.3118 31.4059 34.7588 30.1765 34.7588H7.93529C6.70588 34.7588 5.47647 34.3118 4.58235 33.4176C3.68824 32.5235 3.24118 31.2941 3.24118 30.0647V7.93529C3.24118 6.70588 3.68824 5.47647 4.58235 4.58235C5.47647 3.68824 6.70588 3.24118 7.93529 3.24118H30.0647C31.2941 3.24118 32.5235 3.68824 33.4176 4.58235C34.3118 5.47647 34.7588 6.70588 34.7588 7.93529L34.8706 30.0647ZM28.5 14.1941C28.5 14.6412 28.3882 14.9765 28.0529 15.3118C27.7176 15.6471 27.3824 15.7588 26.9353 15.7588C26.4882 15.7588 26.1529 15.6471 25.8176 15.3118C25.4824 14.9765 25.3706 14.6412 25.3706 14.1941C25.3706 13.7471 25.2588 13.4118 24.9235 13.0765C24.5882 12.7412 24.2529 12.6294 23.8059 12.6294H20.6765V25.2588H22.2412C22.6882 25.2588 23.0235 25.3706 23.3588 25.7059C23.6941 26.0412 23.8059 26.3765 23.8059 26.8235C23.8059 27.2706 23.6941 27.6059 23.3588 27.9412C23.0235 28.2765 22.6882 28.3882 22.2412 28.3882H15.8706C15.4235 28.3882 15.0882 28.2765 14.7529 27.9412C14.4176 27.6059 14.3059 27.2706 14.3059 26.8235C14.3059 26.3765 14.4176 26.0412 14.7529 25.7059C15.0882 25.3706 15.4235 25.2588 15.8706 25.2588H17.4353V12.6294H14.3059C13.8588 12.6294 13.5235 12.7412 13.1882 13.0765C12.8529 13.4118 12.7412 13.7471 12.7412 14.1941C12.7412 14.6412 12.6294 14.9765 12.2941 15.3118C11.9588 15.6471 11.6235 15.7588 11.1765 15.7588C10.7294 15.7588 10.3941 15.6471 10.0588 15.3118C9.72353 14.9765 9.61176 14.6412 9.61176 14.1941C9.61176 12.9647 10.0588 11.7353 10.9529 10.8412C11.8471 9.94706 13.0765 9.5 14.3059 9.5H23.8059C25.0353 9.5 26.2647 9.94706 27.1588 10.8412C28.0529 11.7353 28.5 12.9647 28.5 14.1941Z"/>
</svg>
