<svg width="50" height="50" viewBox="0 0 38 38" fill="#fff" xmlns="http://www.w3.org/2000/svg">
  <path
      d="M35.6529 2.34706C34.2 0.894118 32.1882 0 30.0647 0H7.93529C5.81176 0 3.8 0.894118 2.34706 2.34706C0.894118 3.8 0 5.81176 0 7.93529V30.0647C0 32.1882 0.894118 34.2 2.34706 35.6529C3.8 37.1059 5.81176 38 7.93529 38H30.0647C32.1882 38 34.2 37.1059 35.6529 35.6529C37.1059 34.2 38 32.1882 38 30.0647V7.93529C38 5.81176 37.1059 3.8 35.6529 2.34706ZM34.8706 30.0647C34.8706 31.2941 34.3118 32.5235 33.5294 33.4176C32.7471 34.3118 31.4059 34.7588 30.1765 34.7588H7.93529C6.70588 34.7588 5.47647 34.2 4.58235 33.4176C3.68824 32.5235 3.24118 31.2941 3.24118 30.0647V7.93529C3.24118 6.70588 3.8 5.47647 4.58235 4.58235C5.47647 3.68824 6.70588 3.24118 7.93529 3.24118H30.0647C31.2941 3.24118 32.5235 3.8 33.4176 4.58235C34.3118 5.36471 34.7588 6.70588 34.7588 7.93529L34.8706 30.0647Z"/>
  <path
      d="M29.6176 19.2235V20.0059C29.6176 20.6765 29.0588 21.2353 28.3882 21.2353C27.7176 21.2353 27.1588 20.6765 27.1588 20.0059V19.2235H24.1412V27.0471H24.9235C25.5941 27.0471 26.1529 27.6059 26.1529 28.2765C26.1529 28.9471 25.5941 29.5059 24.9235 29.5059H20.9C20.2294 29.5059 19.6706 28.9471 19.6706 28.2765C19.6706 27.6059 20.2294 27.0471 20.9 27.0471H21.6824V19.2235H20.6765C20.0059 19.2235 19.4471 18.6647 19.4471 17.9941C19.4471 17.3235 20.0059 16.7647 20.6765 16.7647H27.2706C28.5 16.7647 29.6176 17.8824 29.6176 19.2235Z"/>
  <path
      d="M26.4882 12.5176V13.9706C26.4882 14.6412 25.9294 15.2 25.2588 15.2C24.5882 15.2 24.0294 14.6412 24.0294 13.9706V12.5176C24.0294 12.2941 23.8059 12.0706 23.5824 12.0706H18.7765V24.0294H19.5588C20.2294 24.0294 20.7882 24.5882 20.7882 25.2588C20.7882 25.9294 20.2294 26.4882 19.5588 26.4882H14.3059C13.6353 26.4882 13.0765 25.9294 13.0765 25.2588C13.0765 24.5882 13.6353 24.0294 14.3059 24.0294H16.2059V12.0706H11.4C11.1765 12.0706 10.9529 12.2941 10.9529 12.5176V13.9706C10.9529 14.6412 10.3941 15.2 9.72353 15.2C9.05294 15.2 8.38235 14.5294 8.38235 13.8588V12.4059C8.38235 10.7294 9.72353 9.38824 11.4 9.38824H23.4706C25.1471 9.5 26.4882 10.8412 26.4882 12.5176Z"/>
</svg>
