<svg width="50" height="50" viewBox="0 0 38 38" xmlns="http://www.w3.org/2000/svg">
  <path fill="#fff"
        d="M38 8.86956C38 9.21739 38 9.56522 37.8253 9.73913C37.7379 10 37.5632 10.1739 37.3012 10.4348C37.0391 10.6957 36.8644 10.8696 36.6023 10.9565C36.3402 11.0435 36.0782 11.0435 35.7287 11.0435C35.3793 11.0435 35.0299 11.0435 34.8552 10.9565C34.5931 10.8696 34.4184 10.6957 34.1563 10.4348C33.8943 10.1739 33.7195 9.91304 33.6322 9.73913C33.5448 9.47826 33.4575 9.21739 33.4575 8.86956C33.4575 8.26087 33.3701 7.73913 33.1954 7.21739C33.0207 6.69565 32.6713 6.17391 32.2345 5.73913C31.7977 5.30435 31.2736 4.95652 30.7494 4.78261C30.2253 4.6087 29.7011 4.52174 29.0897 4.52174H21.3149V33.4783H25.7701C26.1195 33.4783 26.3816 33.4783 26.6437 33.6522C26.9057 33.7391 27.0805 33.913 27.3425 34.1739C27.6046 34.4348 27.7793 34.6087 27.8667 34.8696C27.954 35.1304 28.0414 35.3913 28.0414 35.7391C28.0414 36.087 28.0414 36.3478 27.8667 36.6087C27.7793 36.8696 27.6046 37.1304 27.3425 37.3043C27.0805 37.5652 26.9057 37.7391 26.6437 37.8261C26.3816 37.913 26.1195 38 25.7701 38H12.2299C11.8805 38 11.531 38 11.3563 37.8261C11.0943 37.7391 10.9195 37.5652 10.6575 37.3043C10.3954 37.0435 10.2207 36.8696 10.1333 36.6087C10.046 36.3478 9.95862 36.087 9.95862 35.7391C9.95862 35.3913 9.95862 35.1304 10.1333 34.8696C10.2207 34.6087 10.3954 34.3478 10.6575 34.1739C10.9195 33.913 11.0943 33.7391 11.3563 33.6522C11.6184 33.5652 11.8805 33.4783 12.2299 33.4783H16.6851V4.43478H8.91034C8.29885 4.43478 7.77471 4.52174 7.25057 4.69565C6.72644 4.95652 6.2023 5.21739 5.76552 5.73913C5.32874 6.17391 4.97931 6.69565 4.71724 7.21739C4.54253 7.73913 4.45517 8.26087 4.45517 8.86956C4.45517 9.21739 4.45517 9.56522 4.28046 9.73913C4.1931 10 4.01839 10.1739 3.75632 10.4348C3.49425 10.6957 3.31954 10.8696 3.05747 10.9565C2.7954 11.0435 2.53333 11.1304 2.18391 11.1304C1.83448 11.1304 1.48506 11.0435 1.31034 10.9565C1.13563 10.8696 0.873563 10.6957 0.611494 10.4348C0.349425 10.1739 0.174713 10 0.0873563 9.73913C0 9.47826 0 9.21739 0 8.86956C0 6.43478 0.96092 4.17391 2.53333 2.52174C4.10575 0.956522 6.46437 0 8.91034 0H29.0897C31.5356 0 33.8069 0.956522 35.4667 2.52174C37.0391 4.08696 38 6.43478 38 8.86956Z"/>
</svg>
